{"glyphs":{"0":{"ha":931,"x_min":0,"x_max":0,"o":"m 465 -15 b 49 499 183 -15 49 175 b 465 1014 49 815 183 1014 b 882 499 742 1014 882 815 b 465 -15 882 175 747 -15 z m 465 913 b 149 499 246 913 149 751 b 465 86 149 239 246 86 b 782 499 685 86 782 239 b 465 913 782 751 685 913 z "},"1":{"ha":375,"x_min":0,"x_max":0,"o":"m 167 0 l 264 0 l 264 992 l 56 992 l 56 901 l 167 894 z "},"2":{"ha":721,"x_min":0,"x_max":0,"o":"m 56 0 l 660 0 l 660 97 l 169 97 l 169 140 b 665 711 169 389 665 389 b 365 1014 665 917 528 1014 b 61 711 175 1014 57 883 l 167 711 b 365 913 167 826 242 913 b 556 711 492 913 556 824 b 56 140 556 474 56 474 z "},"3":{"ha":688,"x_min":0,"x_max":0,"o":"m 596 992 l 56 992 l 56 894 l 428 894 l 206 519 l 315 519 b 526 308 442 519 526 435 b 315 97 526 182 442 97 l 56 97 l 56 0 l 315 0 b 632 308 506 0 632 124 b 369 611 632 474 529 586 z "},"4":{"ha":797,"x_min":0,"x_max":0,"o":"m 497 0 l 599 0 l 599 276 l 742 276 l 742 374 l 599 374 l 599 992 l 489 992 l 42 374 l 42 276 l 497 276 z m 163 374 l 497 840 l 497 374 z "},"5":{"ha":726,"x_min":0,"x_max":0,"o":"m 203 894 l 601 894 l 601 992 l 101 992 l 101 488 l 203 488 b 357 549 243 525 297 549 b 583 319 507 553 583 446 b 357 92 583 194 483 92 b 142 253 256 92 169 160 l 42 253 b 357 -3 72 107 201 -3 b 685 319 536 -3 685 143 b 357 643 685 499 560 647 b 203 604 301 643 249 629 z "},"6":{"ha":743,"x_min":0,"x_max":0,"o":"m 371 -8 b 694 314 550 -8 694 136 b 371 638 694 493 550 638 b 258 617 332 638 293 631 b 461 992 332 763 449 972 l 353 992 b 74 440 353 992 140 603 b 49 314 58 401 49 358 b 371 -8 49 136 193 -8 z m 371 86 b 146 314 246 86 146 189 b 371 543 146 440 246 543 b 597 314 497 543 597 440 b 371 86 597 189 497 86 z "},"7":{"ha":699,"x_min":0,"x_max":0,"o":"m 643 894 l 643 992 l 42 992 l 42 894 l 528 894 l 125 0 l 240 0 z "},"8":{"ha":744,"x_min":0,"x_max":0,"o":"m 536 531 b 664 747 611 578 663 656 b 371 1006 663 900 524 1006 b 81 747 218 1006 79 900 b 207 531 79 656 132 578 b 56 281 115 483 54 394 b 371 -11 54 110 197 -11 b 689 281 544 -11 688 110 b 536 531 688 394 626 483 z m 371 911 b 564 747 481 911 564 857 b 371 579 564 640 481 579 b 181 747 261 579 179 640 b 371 911 179 857 261 911 z m 371 81 b 153 281 247 81 151 160 b 371 478 151 404 247 478 b 592 281 494 478 590 404 b 371 81 590 160 494 81 z "},"9":{"ha":715,"x_min":0,"x_max":0,"o":"m 278 0 l 386 0 l 649 557 b 674 683 664 596 674 639 b 351 1006 674 861 529 1006 b 28 683 172 1006 28 861 b 351 360 28 504 172 360 b 457 378 388 360 424 365 z m 125 683 b 351 911 125 808 225 911 b 576 683 476 911 576 808 b 351 454 576 557 476 454 b 125 683 225 454 125 557 z "},"A":{"ha":1001,"x_min":0,"x_max":0,"o":"m 0 0 l 110 0 l 288 394 l 714 394 l 892 0 l 1001 0 l 556 992 l 446 992 z m 671 492 l 331 492 l 501 869 z "},"Á":{"ha":1001,"x_min":0,"x_max":0,"o":"m 482 1117 l 643 1318 l 522 1318 l 378 1117 z m 0 0 l 110 0 l 288 394 l 714 394 l 892 0 l 1001 0 l 556 992 l 446 992 z m 671 492 l 331 492 l 501 869 z "},"Ă":{"ha":1001,"x_min":0,"x_max":0,"o":"m 608 1281 b 501 1194 603 1226 564 1194 b 390 1281 436 1194 396 1226 l 304 1281 b 501 1113 294 1182 375 1113 b 697 1281 626 1113 707 1182 z m 0 0 l 110 0 l 288 394 l 714 394 l 892 0 l 1001 0 l 556 992 l 446 992 z m 671 492 l 331 492 l 501 869 z "},"Â":{"ha":1001,"x_min":0,"x_max":0,"o":"m 611 1106 l 667 1144 l 522 1331 l 482 1331 l 338 1144 l 393 1106 l 503 1228 z m 0 0 l 110 0 l 288 394 l 714 394 l 892 0 l 1001 0 l 556 992 l 446 992 z m 671 492 l 331 492 l 501 869 z "},"Ä":{"ha":1001,"x_min":0,"x_max":0,"o":"m 368 1117 b 431 1182 401 1117 431 1146 b 368 1243 431 1214 401 1243 b 304 1182 332 1243 304 1214 b 368 1117 304 1146 332 1117 z m 636 1117 b 699 1182 669 1117 699 1146 b 636 1243 699 1214 669 1243 b 572 1182 600 1243 572 1214 b 636 1117 572 1146 600 1117 z m 0 0 l 110 0 l 288 394 l 714 394 l 892 0 l 1001 0 l 556 992 l 446 992 z m 671 492 l 331 492 l 501 869 z "},"À":{"ha":1001,"x_min":0,"x_max":0,"o":"m 526 1117 l 631 1117 l 486 1318 l 365 1318 z m 0 0 l 110 0 l 288 394 l 714 394 l 892 0 l 1001 0 l 556 992 l 446 992 z m 671 492 l 331 492 l 501 869 z "},"Ā":{"ha":1001,"x_min":0,"x_max":0,"o":"m 229 1193 l 229 1111 l 776 1111 l 776 1193 z m 0 0 l 110 0 l 288 394 l 714 394 l 892 0 l 1001 0 l 556 992 l 446 992 z m 671 492 l 331 492 l 501 869 z "},"Ą":{"ha":1001,"x_min":0,"x_max":0,"o":"m 1001 0 l 556 992 l 446 992 l 0 0 l 110 0 l 288 394 l 714 394 l 892 0 l 894 0 b 1075 -175 779 -199 983 -222 l 1075 -90 b 957 0 999 -129 876 -131 z m 331 492 l 501 869 l 671 492 z "},"Å":{"ha":1001,"x_min":0,"x_max":0,"o":"m 501 1114 b 621 1236 564 1114 621 1171 b 501 1354 621 1297 564 1354 b 381 1236 435 1354 381 1297 b 501 1114 381 1171 435 1114 z m 501 1174 b 440 1236 467 1174 440 1201 b 501 1294 440 1267 467 1294 b 561 1236 533 1294 561 1267 b 501 1174 561 1201 533 1174 z m 0 0 l 110 0 l 288 394 l 714 394 l 892 0 l 1001 0 l 556 992 l 446 992 z m 671 492 l 331 492 l 501 869 z "},"Ã":{"ha":1001,"x_min":0,"x_max":0,"o":"m 568 1103 b 704 1232 682 1103 704 1203 l 618 1232 b 568 1182 618 1232 617 1182 b 443 1240 529 1182 521 1240 b 307 1111 329 1240 307 1140 l 393 1111 b 443 1161 393 1111 394 1161 b 568 1103 485 1161 499 1103 z m 0 0 l 110 0 l 288 394 l 714 394 l 892 0 l 1001 0 l 556 992 l 446 992 z m 671 492 l 331 492 l 501 869 z "},"Æ":{"ha":1228,"x_min":0,"x_max":0,"o":"m 0 0 l 110 0 l 288 394 l 594 394 l 674 0 l 1131 0 l 1131 97 l 761 97 l 678 492 l 1011 492 l 1011 589 l 657 589 l 593 894 l 986 894 l 986 992 l 446 992 z m 331 492 l 500 869 l 575 492 z "},"B":{"ha":844,"x_min":0,"x_max":0,"o":"m 111 0 l 465 0 b 782 308 656 0 782 124 b 625 575 782 424 718 522 b 710 756 676 618 710 682 b 465 992 710 897 613 992 l 111 992 z m 213 617 l 213 894 l 465 894 b 604 756 549 894 604 839 b 465 617 604 672 549 617 z m 213 97 l 213 519 l 465 519 b 676 308 592 519 676 435 b 465 97 676 182 592 97 z "},"C":{"ha":1057,"x_min":0,"x_max":0,"o":"m 875 236 b 560 88 801 144 688 88 b 147 500 331 88 147 271 b 560 901 147 718 331 901 b 872 758 686 901 797 846 l 999 758 b 560 1003 908 903 746 1003 b 42 500 275 1003 42 772 b 560 -14 42 217 275 -14 b 1001 236 747 -14 911 86 z "},"Ć":{"ha":1057,"x_min":0,"x_max":0,"o":"m 540 1117 l 701 1318 l 581 1318 l 436 1117 z m 875 236 b 560 88 801 144 688 88 b 147 500 331 88 147 271 b 560 901 147 718 331 901 b 872 758 686 901 797 846 l 999 758 b 560 1003 908 903 746 1003 b 42 500 275 1003 42 772 b 560 -14 42 217 275 -14 b 1001 236 747 -14 911 86 z "},"Č":{"ha":1057,"x_min":0,"x_max":0,"o":"m 671 1365 l 563 1243 l 453 1365 l 397 1326 l 542 1140 l 582 1140 l 726 1326 z m 875 236 b 560 88 801 144 688 88 b 147 500 331 88 147 271 b 560 901 147 718 331 901 b 872 758 686 901 797 846 l 999 758 b 560 1003 908 903 746 1003 b 42 500 275 1003 42 772 b 560 -14 42 217 275 -14 b 1001 236 747 -14 911 86 z "},"Ç":{"ha":1057,"x_min":0,"x_max":0,"o":"m 875 236 b 560 88 801 144 688 88 b 147 500 331 88 147 271 b 560 901 147 718 331 901 b 872 758 686 901 797 846 l 999 758 b 560 1003 908 903 746 1003 b 42 500 275 1003 42 772 b 525 -12 42 228 256 6 l 497 -72 l 556 -72 b 633 -133 599 -72 633 -100 b 556 -196 633 -168 599 -196 b 475 -133 511 -196 475 -168 l 406 -133 b 556 -250 406 -200 471 -250 b 704 -133 639 -250 704 -200 b 588 -21 704 -76 656 -32 l 592 -12 b 1001 236 765 -3 917 94 z "},"Ċ":{"ha":1057,"x_min":0,"x_max":0,"o":"m 560 1115 b 625 1183 594 1115 625 1146 b 560 1247 625 1217 594 1247 b 493 1183 522 1247 493 1217 b 560 1115 493 1146 522 1115 z m 875 236 b 560 88 801 144 688 88 b 147 500 331 88 147 271 b 560 901 147 718 331 901 b 872 758 686 901 797 846 l 999 758 b 560 1003 908 903 746 1003 b 42 500 275 1003 42 772 b 560 -14 42 217 275 -14 b 1001 236 747 -14 911 86 z "},"D":{"ha":935,"x_min":0,"x_max":0,"o":"m 111 0 l 375 0 b 879 496 735 0 879 142 b 375 992 879 850 735 992 l 111 992 z m 213 97 l 213 894 l 375 894 b 774 496 660 894 774 781 b 375 97 774 211 660 97 z "},"Ð":{"ha":935,"x_min":0,"x_max":0,"o":"m 111 992 l 111 443 l 35 443 l 35 350 l 111 350 l 111 0 l 375 0 b 879 496 735 0 879 142 b 375 992 879 850 735 992 z m 213 97 l 213 350 l 567 350 l 567 443 l 213 443 l 213 894 l 375 894 b 774 496 660 894 774 781 b 375 97 774 211 660 97 z "},"Ď":{"ha":935,"x_min":0,"x_max":0,"o":"m 556 1365 l 447 1243 l 338 1365 l 282 1326 l 426 1140 l 467 1140 l 611 1326 z m 111 0 l 375 0 b 879 496 735 0 879 142 b 375 992 879 850 735 992 l 111 992 z m 213 97 l 213 894 l 375 894 b 774 496 660 894 774 781 b 375 97 774 211 660 97 z "},"Đ":{"ha":935,"x_min":0,"x_max":0,"o":"m 111 992 l 111 443 l 35 443 l 35 350 l 111 350 l 111 0 l 375 0 b 879 496 735 0 879 142 b 375 992 879 850 735 992 z m 213 97 l 213 350 l 567 350 l 567 443 l 213 443 l 213 894 l 375 894 b 774 496 660 894 774 781 b 375 97 774 211 660 97 z "},"E":{"ha":783,"x_min":0,"x_max":0,"o":"m 111 0 l 686 0 l 686 97 l 213 97 l 213 519 l 660 519 l 660 617 l 213 617 l 213 894 l 686 894 l 686 992 l 111 992 z "},"É":{"ha":783,"x_min":0,"x_max":0,"o":"m 385 1117 l 546 1318 l 425 1318 l 281 1117 z m 111 0 l 686 0 l 686 97 l 213 97 l 213 519 l 660 519 l 660 617 l 213 617 l 213 894 l 686 894 l 686 992 l 111 992 z "},"Ě":{"ha":783,"x_min":0,"x_max":0,"o":"m 515 1365 l 407 1243 l 297 1365 l 242 1326 l 386 1140 l 426 1140 l 571 1326 z m 111 0 l 686 0 l 686 97 l 213 97 l 213 519 l 660 519 l 660 617 l 213 617 l 213 894 l 686 894 l 686 992 l 111 992 z "},"Ê":{"ha":783,"x_min":0,"x_max":0,"o":"m 514 1106 l 569 1144 l 425 1331 l 385 1331 l 240 1144 l 296 1106 l 406 1228 z m 111 0 l 686 0 l 686 97 l 213 97 l 213 519 l 660 519 l 660 617 l 213 617 l 213 894 l 686 894 l 686 992 l 111 992 z "},"Ë":{"ha":783,"x_min":0,"x_max":0,"o":"m 271 1117 b 333 1182 304 1117 333 1146 b 271 1243 333 1214 304 1243 b 207 1182 235 1243 207 1214 b 271 1117 207 1146 235 1117 z m 539 1117 b 601 1182 572 1117 601 1146 b 539 1243 601 1214 572 1243 b 475 1182 503 1243 475 1214 b 539 1117 475 1146 503 1117 z m 111 0 l 686 0 l 686 97 l 213 97 l 213 519 l 660 519 l 660 617 l 213 617 l 213 894 l 686 894 l 686 992 l 111 992 z "},"Ė":{"ha":783,"x_min":0,"x_max":0,"o":"m 404 1115 b 469 1183 439 1115 469 1146 b 404 1247 469 1217 439 1247 b 338 1183 367 1247 338 1217 b 404 1115 338 1146 367 1115 z m 111 0 l 686 0 l 686 97 l 213 97 l 213 519 l 660 519 l 660 617 l 213 617 l 213 894 l 686 894 l 686 992 l 111 992 z "},"È":{"ha":783,"x_min":0,"x_max":0,"o":"m 429 1117 l 533 1117 l 389 1318 l 268 1318 z m 111 0 l 686 0 l 686 97 l 213 97 l 213 519 l 660 519 l 660 617 l 213 617 l 213 894 l 686 894 l 686 992 l 111 992 z "},"Ē":{"ha":783,"x_min":0,"x_max":0,"o":"m 132 1193 l 132 1111 l 679 1111 l 679 1193 z m 111 0 l 686 0 l 686 97 l 213 97 l 213 519 l 660 519 l 660 617 l 213 617 l 213 894 l 686 894 l 686 992 l 111 992 z "},"Ę":{"ha":783,"x_min":0,"x_max":0,"o":"m 111 0 l 686 0 l 686 97 l 213 97 l 213 519 l 660 519 l 660 617 l 213 617 l 213 894 l 686 894 l 686 992 l 111 992 z m 922 -90 b 814 14 843 -131 715 -131 l 750 14 b 922 -175 617 -197 829 -224 z "},"F":{"ha":688,"x_min":0,"x_max":0,"o":"m 111 0 l 213 0 l 213 519 l 614 519 l 614 617 l 213 617 l 213 894 l 646 894 l 646 992 l 111 992 z "},"G":{"ha":1106,"x_min":0,"x_max":0,"o":"m 560 -12 b 907 121 693 -12 815 38 l 907 0 l 1008 0 l 1008 501 l 907 501 l 907 278 b 560 89 833 164 706 89 b 147 501 331 89 147 272 b 560 903 147 719 331 903 b 889 744 693 903 814 840 l 1003 744 b 560 1004 914 897 753 1004 b 42 501 275 1004 42 774 b 560 -12 42 218 275 -12 z "},"Ğ":{"ha":1106,"x_min":0,"x_max":0,"o":"m 667 1281 b 560 1194 661 1226 622 1194 b 449 1281 494 1194 454 1226 l 363 1281 b 560 1113 353 1182 433 1113 b 756 1281 685 1113 765 1182 z m 560 -12 b 907 121 693 -12 815 38 l 907 0 l 1008 0 l 1008 501 l 907 501 l 907 278 b 560 89 833 164 706 89 b 147 501 331 89 147 272 b 560 903 147 719 331 903 b 889 744 693 903 814 840 l 1003 744 b 560 1004 914 897 753 1004 b 42 501 275 1004 42 774 b 560 -12 42 218 275 -12 z "},"Ģ":{"ha":1106,"x_min":0,"x_max":0,"o":"m 560 -12 b 907 121 693 -12 815 38 l 907 0 l 1008 0 l 1008 501 l 907 501 l 907 278 b 560 89 833 164 706 89 b 147 501 331 89 147 272 b 560 903 147 719 331 903 b 889 744 693 903 814 840 l 1003 744 b 560 1004 914 897 753 1004 b 42 501 275 1004 42 774 b 560 -12 42 218 275 -12 z m 503 -353 l 547 -353 l 614 -226 b 629 -174 621 -212 629 -194 b 553 -97 629 -132 594 -97 b 475 -174 510 -97 475 -132 b 529 -247 475 -208 497 -237 z "},"Ġ":{"ha":1106,"x_min":0,"x_max":0,"o":"m 560 1115 b 625 1183 594 1115 625 1146 b 560 1247 625 1217 594 1247 b 493 1183 522 1247 493 1217 b 560 1115 493 1146 522 1115 z m 560 -12 b 907 121 693 -12 815 38 l 907 0 l 1008 0 l 1008 501 l 907 501 l 907 278 b 560 89 833 164 706 89 b 147 501 331 89 147 272 b 560 903 147 719 331 903 b 889 744 693 903 814 840 l 1003 744 b 560 1004 914 897 753 1004 b 42 501 275 1004 42 774 b 560 -12 42 218 275 -12 z "},"H":{"ha":997,"x_min":0,"x_max":0,"o":"m 111 0 l 213 0 l 213 486 l 789 486 l 789 0 l 886 0 l 886 992 l 789 992 l 789 583 l 213 583 l 213 992 l 111 992 z "},"Ħ":{"ha":997,"x_min":0,"x_max":0,"o":"m 886 722 l 961 722 l 961 790 l 886 790 l 886 992 l 789 992 l 789 790 l 213 790 l 213 992 l 111 992 l 111 790 l 33 790 l 33 722 l 111 722 l 111 0 l 213 0 l 213 486 l 789 486 l 789 0 l 886 0 z m 213 722 l 789 722 l 789 583 l 213 583 z "},"I":{"ha":324,"x_min":0,"x_max":0,"o":"m 111 0 l 213 0 l 213 992 l 111 992 z "},"Ĳ":{"ha":661,"x_min":0,"x_max":0,"o":"m 111 0 l 213 0 l 213 992 l 111 992 z m 171 -278 b 550 103 410 -278 550 -136 l 550 992 l 449 992 l 449 103 b 171 -176 449 -72 346 -176 z "},"Í":{"ha":324,"x_min":0,"x_max":0,"o":"m 183 1318 l 39 1117 l 143 1117 l 304 1318 z m 111 0 l 213 0 l 213 992 l 111 992 z "},"Î":{"ha":324,"x_min":0,"x_max":0,"o":"m 272 1106 l 328 1144 l 183 1331 l 143 1331 l -1 1144 l 54 1106 l 164 1228 z m 111 0 l 213 0 l 213 992 l 111 992 z "},"Ï":{"ha":324,"x_min":0,"x_max":0,"o":"m 29 1117 b 92 1182 63 1117 92 1146 b 29 1243 92 1214 63 1243 b -35 1182 -7 1243 -35 1214 b 29 1117 -35 1146 -7 1117 z m 297 1117 b 360 1182 331 1117 360 1146 b 297 1243 360 1214 331 1243 b 233 1182 261 1243 233 1214 b 297 1117 233 1146 261 1117 z m 111 0 l 213 0 l 213 992 l 111 992 z "},"İ":{"ha":324,"x_min":0,"x_max":0,"o":"m 163 1115 b 228 1183 197 1115 228 1146 b 163 1247 228 1217 197 1247 b 96 1183 125 1247 96 1217 b 163 1115 96 1146 125 1115 z m 111 0 l 213 0 l 213 992 l 111 992 z "},"Ì":{"ha":324,"x_min":0,"x_max":0,"o":"m 188 1117 l 292 1117 l 147 1318 l 26 1318 z m 111 0 l 213 0 l 213 992 l 111 992 z "},"Ī":{"ha":324,"x_min":0,"x_max":0,"o":"m -110 1193 l -110 1111 l 438 1111 l 438 1193 z m 111 0 l 213 0 l 213 992 l 111 992 z "},"Į":{"ha":324,"x_min":0,"x_max":0,"o":"m 111 0 l 213 0 l 213 992 l 111 992 z m 449 -90 b 340 14 369 -131 242 -131 l 276 14 b 449 -175 143 -197 356 -224 z "},"J":{"ha":490,"x_min":0,"x_max":0,"o":"m 0 -278 b 379 103 239 -278 379 -136 l 379 992 l 278 992 l 278 103 b 0 -176 278 -72 175 -176 z "},"K":{"ha":851,"x_min":0,"x_max":0,"o":"m 111 0 l 213 0 l 213 372 l 310 481 l 725 0 l 851 0 l 376 556 l 769 992 l 643 992 l 213 524 l 213 992 l 111 992 z "},"Ķ":{"ha":851,"x_min":0,"x_max":0,"o":"m 111 0 l 213 0 l 213 372 l 310 481 l 725 0 l 851 0 l 376 556 l 769 992 l 643 992 l 213 524 l 213 992 l 111 992 z m 376 -353 l 421 -353 l 488 -226 b 503 -174 494 -212 503 -194 b 426 -97 503 -132 468 -97 b 349 -174 383 -97 349 -132 b 403 -247 349 -208 371 -237 z "},"L":{"ha":711,"x_min":0,"x_max":0,"o":"m 111 0 l 669 0 l 669 97 l 213 97 l 213 992 l 111 992 z "},"Ĺ":{"ha":711,"x_min":0,"x_max":0,"o":"m 215 1117 l 376 1318 l 256 1318 l 111 1117 z m 111 0 l 669 0 l 669 97 l 213 97 l 213 992 l 111 992 z "},"Ľ":{"ha":711,"x_min":0,"x_max":0,"o":"m 418 747 l 463 747 l 529 874 b 544 926 536 888 544 906 b 468 1003 544 968 510 1003 b 390 926 425 1003 390 968 b 444 853 390 892 413 863 z m 111 0 l 669 0 l 669 97 l 213 97 l 213 992 l 111 992 z "},"Ļ":{"ha":711,"x_min":0,"x_max":0,"o":"m 111 0 l 669 0 l 669 97 l 213 97 l 213 992 l 111 992 z m 351 -353 l 396 -353 l 463 -226 b 478 -174 469 -212 478 -194 b 401 -97 478 -132 443 -97 b 324 -174 358 -97 324 -132 b 378 -247 324 -208 346 -237 z "},"Ŀ":{"ha":711,"x_min":0,"x_max":0,"o":"m 111 0 l 669 0 l 669 97 l 213 97 l 213 992 l 111 992 z m 461 350 b 538 429 500 350 538 389 b 461 504 538 465 499 504 b 383 429 417 504 383 465 b 461 350 383 389 417 350 z "},"Ł":{"ha":711,"x_min":0,"x_max":0,"o":"m 669 0 l 669 97 l 213 97 l 213 442 l 375 524 l 375 611 l 213 529 l 213 992 l 111 992 l 111 478 l 3 422 l 3 335 l 111 390 l 111 0 z "},"M":{"ha":1211,"x_min":0,"x_max":0,"o":"m 999 0 l 1100 0 l 1100 992 l 985 992 l 606 111 l 226 992 l 111 992 l 111 0 l 213 0 l 213 760 l 546 0 l 667 0 l 999 760 z "},"N":{"ha":1067,"x_min":0,"x_max":0,"o":"m 111 0 l 213 0 l 213 853 l 833 0 l 956 0 l 956 992 l 854 992 l 854 139 l 233 992 l 111 992 z "},"Ń":{"ha":1067,"x_min":0,"x_max":0,"o":"m 557 1318 l 413 1117 l 517 1117 l 678 1318 z m 854 139 l 233 992 l 111 992 l 111 0 l 213 0 l 213 853 l 833 0 l 956 0 l 956 992 l 854 992 z "},"Ň":{"ha":1067,"x_min":0,"x_max":0,"o":"m 558 1140 l 703 1326 l 647 1365 l 539 1243 l 429 1365 l 374 1326 l 518 1140 z m 854 139 l 233 992 l 111 992 l 111 0 l 213 0 l 213 853 l 833 0 l 956 0 l 956 992 l 854 992 z "},"Ņ":{"ha":1067,"x_min":0,"x_max":0,"o":"m 111 0 l 213 0 l 213 853 l 833 0 l 956 0 l 956 992 l 854 992 l 854 139 l 233 992 l 111 992 z m 478 -353 l 522 -353 l 589 -226 b 604 -174 596 -212 604 -194 b 528 -97 604 -132 569 -97 b 450 -174 485 -97 450 -132 b 504 -247 450 -208 472 -237 z "},"Ŋ":{"ha":1067,"x_min":0,"x_max":0,"o":"m 854 992 l 854 139 l 233 992 l 111 992 l 111 0 l 213 0 l 213 853 l 833 0 l 854 -29 b 681 -178 854 -178 856 -203 l 681 -279 b 956 0 950 -325 956 -237 l 956 992 z "},"Ñ":{"ha":1067,"x_min":0,"x_max":0,"o":"m 603 1103 b 739 1232 717 1103 739 1203 l 653 1232 b 603 1182 653 1232 651 1182 b 478 1240 564 1182 556 1240 b 342 1111 364 1240 342 1140 l 428 1111 b 478 1161 428 1111 429 1161 b 603 1103 519 1161 533 1103 z m 111 0 l 213 0 l 213 853 l 833 0 l 956 0 l 956 992 l 854 992 l 854 139 l 233 992 l 111 992 z "},"O":{"ha":1131,"x_min":0,"x_max":0,"o":"m 565 1006 b 49 503 281 1006 49 775 b 565 -11 49 219 281 -11 b 1082 503 850 -11 1082 219 b 565 1006 1082 775 850 1006 z m 565 90 b 154 503 336 90 154 274 b 565 904 154 721 336 904 b 976 503 794 904 976 721 b 565 90 976 274 794 90 z "},"Ó":{"ha":1131,"x_min":0,"x_max":0,"o":"m 546 1121 l 707 1322 l 586 1322 l 442 1121 z m 565 1006 b 49 503 281 1006 49 775 b 565 -11 49 219 281 -11 b 1082 503 850 -11 1082 219 b 565 1006 1082 775 850 1006 z m 565 90 b 154 503 336 90 154 274 b 565 904 154 721 336 904 b 976 503 794 904 976 721 b 565 90 976 274 794 90 z "},"Ô":{"ha":1131,"x_min":0,"x_max":0,"o":"m 675 1110 l 731 1149 l 586 1335 l 546 1335 l 401 1149 l 457 1110 l 567 1232 z m 565 1006 b 49 503 281 1006 49 775 b 565 -11 49 219 281 -11 b 1082 503 850 -11 1082 219 b 565 1006 1082 775 850 1006 z m 565 90 b 154 503 336 90 154 274 b 565 904 154 721 336 904 b 976 503 794 904 976 721 b 565 90 976 274 794 90 z "},"Ö":{"ha":1131,"x_min":0,"x_max":0,"o":"m 432 1121 b 494 1186 465 1121 494 1150 b 432 1247 494 1218 465 1247 b 368 1186 396 1247 368 1218 b 432 1121 368 1150 396 1121 z m 700 1121 b 763 1186 733 1121 763 1150 b 700 1247 763 1218 733 1247 b 636 1186 664 1247 636 1218 b 700 1121 636 1150 664 1121 z m 565 1006 b 49 503 281 1006 49 775 b 565 -11 49 219 281 -11 b 1082 503 850 -11 1082 219 b 565 1006 1082 775 850 1006 z m 565 90 b 154 503 336 90 154 274 b 565 904 154 721 336 904 b 976 503 794 904 976 721 b 565 90 976 274 794 90 z "},"Ò":{"ha":1131,"x_min":0,"x_max":0,"o":"m 590 1121 l 694 1121 l 550 1322 l 429 1322 z m 565 1006 b 49 503 281 1006 49 775 b 565 -11 49 219 281 -11 b 1082 503 850 -11 1082 219 b 565 1006 1082 775 850 1006 z m 565 90 b 154 503 336 90 154 274 b 565 904 154 721 336 904 b 976 503 794 904 976 721 b 565 90 976 274 794 90 z "},"Ő":{"ha":1131,"x_min":0,"x_max":0,"o":"m 390 1083 l 494 1083 l 656 1285 l 535 1285 z m 617 1083 l 721 1083 l 882 1285 l 761 1285 z m 565 1006 b 49 503 281 1006 49 775 b 565 -11 49 219 281 -11 b 1082 503 850 -11 1082 219 b 565 1006 1082 775 850 1006 z m 565 90 b 154 503 336 90 154 274 b 565 904 154 721 336 904 b 976 503 794 904 976 721 b 565 90 976 274 794 90 z "},"Ō":{"ha":1131,"x_min":0,"x_max":0,"o":"m 293 1197 l 293 1115 l 840 1115 l 840 1197 z m 565 1006 b 49 503 281 1006 49 775 b 565 -11 49 219 281 -11 b 1082 503 850 -11 1082 219 b 565 1006 1082 775 850 1006 z m 565 90 b 154 503 336 90 154 274 b 565 904 154 721 336 904 b 976 503 794 904 976 721 b 565 90 976 274 794 90 z "},"Ø":{"ha":1131,"x_min":0,"x_max":0,"o":"m 788 1044 l 693 1044 l 676 993 b 565 1006 640 1001 603 1006 b 49 503 281 1006 49 775 b 361 31 49 292 178 110 l 321 -93 l 415 -93 l 447 3 b 565 -11 485 -7 525 -11 b 1082 503 850 -11 1082 219 b 763 967 1082 708 950 890 z m 154 503 b 565 904 154 721 336 904 b 644 897 593 904 619 901 l 393 128 b 154 503 251 193 154 335 z m 565 90 b 478 100 535 90 506 93 l 731 871 b 976 503 875 807 976 665 b 565 90 976 274 794 90 z "},"Õ":{"ha":1131,"x_min":0,"x_max":0,"o":"m 632 1107 b 768 1236 746 1107 768 1207 l 682 1236 b 632 1186 682 1236 681 1186 b 507 1244 593 1186 585 1244 b 371 1115 393 1244 371 1144 l 457 1115 b 507 1165 457 1115 458 1165 b 632 1107 549 1165 563 1107 z m 565 1006 b 49 503 281 1006 49 775 b 565 -11 49 219 281 -11 b 1082 503 850 -11 1082 219 b 565 1006 1082 775 850 1006 z m 565 90 b 154 503 336 90 154 274 b 565 904 154 721 336 904 b 976 503 794 904 976 721 b 565 90 976 274 794 90 z "},"Œ":{"ha":1654,"x_min":0,"x_max":0,"o":"m 1557 894 l 1557 992 l 982 992 l 982 797 b 565 1006 888 922 736 1006 b 49 503 281 1006 49 775 b 565 -11 49 219 281 -11 b 982 200 736 -11 888 72 l 982 0 l 1557 0 l 1557 97 l 1083 97 l 1083 519 l 1531 519 l 1531 617 l 1083 617 l 1083 894 z m 565 90 b 154 503 336 90 154 274 b 565 904 154 721 336 904 b 976 503 794 904 976 721 b 565 90 976 274 794 90 z "},"P":{"ha":794,"x_min":0,"x_max":0,"o":"m 111 992 l 111 0 l 213 0 l 213 375 l 436 375 b 753 683 626 375 753 499 b 436 992 753 868 625 992 z m 213 472 l 213 894 l 436 894 b 647 683 564 894 647 810 b 436 472 647 557 563 472 z "},"Þ":{"ha":324,"x_min":0,"x_max":0,"o":"m 111 0 l 213 0 l 213 992 l 111 992 z "},"Q":{"ha":1125,"x_min":0,"x_max":0,"o":"m 558 -15 b 789 39 642 -15 719 4 l 881 -78 l 967 -6 l 883 100 b 1075 499 1000 194 1075 338 b 558 1001 1075 771 843 1001 b 42 499 274 1001 42 771 b 558 -15 42 215 274 -15 z m 558 86 b 147 499 329 86 147 269 b 558 900 147 717 329 900 b 969 499 788 900 969 717 b 821 181 969 369 913 256 l 675 365 l 589 296 l 725 121 b 558 86 675 99 618 86 z "},"R":{"ha":842,"x_min":0,"x_max":0,"o":"m 111 0 l 213 0 l 213 375 l 397 375 l 693 0 l 828 0 l 525 385 b 753 683 665 418 753 529 b 436 992 753 868 625 992 l 111 992 z m 213 472 l 213 894 l 436 894 b 647 683 564 894 647 810 b 436 472 647 557 563 472 z "},"Ŕ":{"ha":828,"x_min":0,"x_max":0,"o":"m 301 1117 l 406 1117 l 567 1318 l 446 1318 z m 111 992 l 111 0 l 213 0 l 213 375 l 397 375 l 693 0 l 828 0 l 525 385 b 753 683 665 418 753 529 b 436 992 753 868 625 992 z m 213 472 l 213 894 l 436 894 b 647 683 564 894 647 810 b 436 472 647 557 563 472 z "},"Ř":{"ha":828,"x_min":0,"x_max":0,"o":"m 592 1326 l 536 1365 l 428 1243 l 318 1365 l 263 1326 l 407 1140 l 447 1140 z m 111 992 l 111 0 l 213 0 l 213 375 l 397 375 l 693 0 l 828 0 l 525 385 b 753 683 665 418 753 529 b 436 992 753 868 625 992 z m 213 472 l 213 894 l 436 894 b 647 683 564 894 647 810 b 436 472 647 557 563 472 z "},"Ŗ":{"ha":842,"x_min":0,"x_max":0,"o":"m 111 0 l 213 0 l 213 375 l 397 375 l 693 0 l 828 0 l 525 385 b 753 683 665 418 753 529 b 436 992 753 868 625 992 l 111 992 z m 213 472 l 213 894 l 436 894 b 647 683 564 894 647 810 b 436 472 647 557 563 472 z m 367 -353 l 411 -353 l 478 -226 b 493 -174 485 -212 493 -194 b 417 -97 493 -132 458 -97 b 339 -174 374 -97 339 -132 b 393 -247 339 -208 361 -237 z "},"S":{"ha":728,"x_min":0,"x_max":0,"o":"m 638 789 b 364 1007 615 917 503 1007 b 79 742 193 1007 79 892 b 364 465 79 592 179 522 b 581 275 521 417 581 367 b 364 89 581 160 485 89 b 150 253 257 89 169 157 l 44 253 b 364 -12 64 99 199 -12 b 686 275 543 -12 686 101 b 364 579 686 449 549 521 b 185 742 244 617 185 656 b 364 906 185 828 256 906 b 526 789 439 906 506 854 z "},"Ś":{"ha":728,"x_min":0,"x_max":0,"o":"m 247 1117 l 351 1117 l 513 1318 l 392 1318 z m 638 789 b 364 1007 615 917 503 1007 b 79 742 193 1007 79 892 b 364 465 79 592 179 522 b 581 275 521 417 581 367 b 364 89 581 160 485 89 b 150 253 257 89 169 157 l 44 253 b 364 -12 64 99 199 -12 b 686 275 543 -12 686 101 b 364 579 686 449 549 521 b 185 742 244 617 185 656 b 364 906 185 828 256 906 b 526 789 439 906 506 854 z "},"Š":{"ha":728,"x_min":0,"x_max":0,"o":"m 538 1326 l 482 1365 l 374 1243 l 264 1365 l 208 1326 l 353 1140 l 393 1140 z m 638 789 b 364 1007 615 917 503 1007 b 79 742 193 1007 79 892 b 364 465 79 592 179 522 b 581 275 521 417 581 367 b 364 89 581 160 485 89 b 150 253 257 89 169 157 l 44 253 b 364 -12 64 99 199 -12 b 686 275 543 -12 686 101 b 364 579 686 449 549 521 b 185 742 244 617 185 656 b 364 906 185 828 256 906 b 526 789 439 906 506 854 z "},"Ş":{"ha":728,"x_min":0,"x_max":0,"o":"m 686 275 b 364 579 686 449 549 521 b 185 742 244 617 185 656 b 364 906 185 828 256 906 b 526 789 439 906 506 854 l 638 789 b 364 1007 615 917 503 1007 b 79 742 193 1007 79 892 b 364 465 79 592 179 522 b 581 275 521 417 581 367 b 364 89 581 160 485 89 b 150 253 257 89 169 157 l 44 253 b 329 -11 63 110 181 3 l 301 -72 l 360 -72 b 438 -133 403 -72 438 -100 b 360 -196 438 -168 403 -196 b 279 -133 315 -196 279 -168 l 210 -133 b 360 -250 210 -200 275 -250 b 508 -133 443 -250 508 -200 b 392 -21 508 -76 460 -32 l 396 -11 b 686 275 560 1 686 113 z "},"Ș":{"ha":728,"x_min":0,"x_max":0,"o":"m 638 789 b 364 1007 615 917 503 1007 b 79 742 193 1007 79 892 b 364 465 79 592 179 522 b 581 275 521 417 581 367 b 364 89 581 160 485 89 b 150 253 257 89 169 157 l 44 253 b 364 -12 64 99 199 -12 b 686 275 543 -12 686 101 b 364 579 686 449 549 521 b 185 742 244 617 185 656 b 364 906 185 828 256 906 b 526 789 439 906 506 854 z m 306 -353 l 350 -353 l 417 -226 b 432 -174 424 -212 432 -194 b 356 -97 432 -132 397 -97 b 278 -174 313 -97 278 -132 b 332 -247 278 -208 300 -237 z "},"T":{"ha":800,"x_min":0,"x_max":0,"o":"m 350 0 l 451 0 l 451 894 l 786 894 l 786 992 l 14 992 l 14 894 l 350 894 z "},"Ŧ":{"ha":800,"x_min":0,"x_max":0,"o":"m 128 1193 l 128 1111 l 675 1111 l 675 1193 z m 350 0 l 451 0 l 451 894 l 786 894 l 786 992 l 14 992 l 14 894 l 350 894 z "},"Ť":{"ha":800,"x_min":0,"x_max":0,"o":"m 567 1326 l 511 1365 l 403 1243 l 293 1365 l 238 1326 l 382 1140 l 422 1140 z m 14 894 l 350 894 l 350 0 l 451 0 l 451 894 l 786 894 l 786 992 l 14 992 z "},"Ţ":{"ha":800,"x_min":0,"x_max":0,"o":"m 451 0 l 451 894 l 786 894 l 786 992 l 14 992 l 14 894 l 350 894 l 350 0 l 371 0 l 338 -72 l 396 -72 b 474 -133 439 -72 474 -100 b 396 -196 474 -168 439 -196 b 315 -133 351 -196 315 -168 l 246 -133 b 396 -250 246 -200 311 -250 b 544 -133 479 -250 544 -200 b 428 -21 544 -76 496 -32 l 438 0 z "},"Ț":{"ha":800,"x_min":0,"x_max":0,"o":"m 350 0 l 451 0 l 451 894 l 786 894 l 786 992 l 14 992 l 14 894 l 350 894 z m 342 -353 l 386 -353 l 453 -226 b 468 -174 460 -212 468 -194 b 392 -97 468 -132 433 -97 b 314 -174 349 -97 314 -132 b 368 -247 314 -208 336 -237 z "},"U":{"ha":928,"x_min":0,"x_max":0,"o":"m 465 -22 b 844 358 704 -22 844 119 l 844 992 l 743 992 l 743 358 b 465 79 743 183 640 79 b 185 358 289 79 185 183 l 185 992 l 83 992 l 83 358 b 465 -22 83 119 225 -22 z "},"Ú":{"ha":928,"x_min":0,"x_max":0,"o":"m 340 1117 l 444 1117 l 606 1318 l 485 1318 z m 465 -22 b 844 358 704 -22 844 119 l 844 992 l 743 992 l 743 358 b 465 79 743 183 640 79 b 185 358 289 79 185 183 l 185 992 l 83 992 l 83 358 b 465 -22 83 119 225 -22 z "},"Û":{"ha":928,"x_min":0,"x_max":0,"o":"m 574 1106 l 629 1144 l 485 1331 l 444 1331 l 300 1144 l 356 1106 l 465 1228 z m 465 -22 b 844 358 704 -22 844 119 l 844 992 l 743 992 l 743 358 b 465 79 743 183 640 79 b 185 358 289 79 185 183 l 185 992 l 83 992 l 83 358 b 465 -22 83 119 225 -22 z "},"Ü":{"ha":928,"x_min":0,"x_max":0,"o":"m 331 1117 b 393 1182 364 1117 393 1146 b 331 1243 393 1214 364 1243 b 267 1182 294 1243 267 1214 b 331 1117 267 1146 294 1117 z m 599 1117 b 661 1182 632 1117 661 1146 b 599 1243 661 1214 632 1243 b 535 1182 563 1243 535 1214 b 599 1117 535 1146 563 1117 z m 465 -22 b 844 358 704 -22 844 119 l 844 992 l 743 992 l 743 358 b 465 79 743 183 640 79 b 185 358 289 79 185 183 l 185 992 l 83 992 l 83 358 b 465 -22 83 119 225 -22 z "},"Ù":{"ha":928,"x_min":0,"x_max":0,"o":"m 489 1117 l 593 1117 l 449 1318 l 328 1318 z m 465 -22 b 844 358 704 -22 844 119 l 844 992 l 743 992 l 743 358 b 465 79 743 183 640 79 b 185 358 289 79 185 183 l 185 992 l 83 992 l 83 358 b 465 -22 83 119 225 -22 z "},"Ű":{"ha":928,"x_min":0,"x_max":0,"o":"m 289 1079 l 393 1079 l 554 1281 l 433 1281 z m 515 1079 l 619 1079 l 781 1281 l 660 1281 z m 465 -22 b 844 358 704 -22 844 119 l 844 992 l 743 992 l 743 358 b 465 79 743 183 640 79 b 185 358 289 79 185 183 l 185 992 l 83 992 l 83 358 b 465 -22 83 119 225 -22 z "},"Ū":{"ha":928,"x_min":0,"x_max":0,"o":"m 192 1193 l 192 1111 l 739 1111 l 739 1193 z m 465 -22 b 844 358 704 -22 844 119 l 844 992 l 743 992 l 743 358 b 465 79 743 183 640 79 b 185 358 289 79 185 183 l 185 992 l 83 992 l 83 358 b 465 -22 83 119 225 -22 z "},"Ų":{"ha":928,"x_min":0,"x_max":0,"o":"m 743 992 l 743 358 b 465 79 743 183 640 79 b 185 358 289 79 185 183 l 185 992 l 83 992 l 83 358 b 465 -22 83 119 225 -22 b 533 -18 489 -22 513 -21 b 717 -189 424 -212 626 -236 l 717 -104 b 607 -3 638 -144 511 -144 b 844 358 758 44 844 171 l 844 992 z "},"Ů":{"ha":928,"x_min":0,"x_max":0,"o":"m 464 1114 b 583 1236 526 1114 583 1171 b 464 1354 583 1297 526 1354 b 343 1236 397 1354 343 1297 b 464 1114 343 1171 397 1114 z m 464 1174 b 403 1236 429 1174 403 1201 b 464 1294 403 1267 429 1294 b 524 1236 496 1294 524 1267 b 464 1174 524 1201 496 1174 z m 465 -22 b 844 358 704 -22 844 119 l 844 992 l 743 992 l 743 358 b 465 79 743 183 640 79 b 185 358 289 79 185 183 l 185 992 l 83 992 l 83 358 b 465 -22 83 119 225 -22 z "},"V":{"ha":946,"x_min":0,"x_max":0,"o":"m 418 0 l 528 0 l 946 992 l 836 992 l 474 131 l 110 992 l 0 992 z "},"W":{"ha":1360,"x_min":0,"x_max":0,"o":"m 297 0 l 399 0 l 681 840 l 961 0 l 1063 0 l 1394 992 l 1293 992 l 1013 151 l 731 992 l 629 992 l 349 151 l 67 992 l -35 992 z "},"Ẃ":{"ha":1360,"x_min":0,"x_max":0,"o":"m 661 1117 l 822 1318 l 701 1318 l 557 1117 z m 297 0 l 399 0 l 681 840 l 961 0 l 1063 0 l 1394 992 l 1293 992 l 1013 151 l 731 992 l 629 992 l 349 151 l 67 992 l -35 992 z "},"Ŵ":{"ha":1360,"x_min":0,"x_max":0,"o":"m 790 1106 l 846 1144 l 701 1331 l 661 1331 l 517 1144 l 572 1106 l 682 1228 z m 297 0 l 399 0 l 681 840 l 961 0 l 1063 0 l 1394 992 l 1293 992 l 1013 151 l 731 992 l 629 992 l 349 151 l 67 992 l -35 992 z "},"Ẅ":{"ha":1360,"x_min":0,"x_max":0,"o":"m 547 1117 b 610 1182 581 1117 610 1146 b 547 1243 610 1214 581 1243 b 483 1182 511 1243 483 1214 b 547 1117 483 1146 511 1117 z m 815 1117 b 878 1182 849 1117 878 1146 b 815 1243 878 1214 849 1243 b 751 1182 779 1243 751 1214 b 815 1117 751 1146 779 1117 z m 297 0 l 399 0 l 681 840 l 961 0 l 1063 0 l 1394 992 l 1293 992 l 1013 151 l 731 992 l 629 992 l 349 151 l 67 992 l -35 992 z "},"Ẁ":{"ha":1360,"x_min":0,"x_max":0,"o":"m 706 1117 l 810 1117 l 665 1318 l 544 1318 z m 297 0 l 399 0 l 681 840 l 961 0 l 1063 0 l 1394 992 l 1293 992 l 1013 151 l 731 992 l 629 992 l 349 151 l 67 992 l -35 992 z "},"X":{"ha":908,"x_min":0,"x_max":0,"o":"m 894 0 l 519 496 l 894 992 l 764 992 l 454 582 l 144 992 l 14 992 l 389 496 l 14 0 l 144 0 l 454 410 l 764 0 z "},"Y":{"ha":797,"x_min":0,"x_max":0,"o":"m 201 0 l 311 0 l 797 992 l 688 992 l 399 401 l 110 992 l 0 992 l 343 290 z "},"Ý":{"ha":797,"x_min":0,"x_max":0,"o":"m 400 1117 l 561 1318 l 440 1318 l 296 1117 z m 201 0 l 311 0 l 797 992 l 688 992 l 399 401 l 110 992 l 0 992 l 343 290 z "},"Ŷ":{"ha":797,"x_min":0,"x_max":0,"o":"m 529 1106 l 585 1144 l 440 1331 l 400 1331 l 256 1144 l 311 1106 l 421 1228 z m 201 0 l 311 0 l 797 992 l 688 992 l 399 401 l 110 992 l 0 992 l 343 290 z "},"Ÿ":{"ha":797,"x_min":0,"x_max":0,"o":"m 286 1117 b 349 1182 319 1117 349 1146 b 286 1243 349 1214 319 1243 b 222 1182 250 1243 222 1214 b 286 1117 222 1146 250 1117 z m 554 1117 b 617 1182 588 1117 617 1146 b 554 1243 617 1214 588 1243 b 490 1182 518 1243 490 1214 b 554 1117 490 1146 518 1117 z m 201 0 l 311 0 l 797 992 l 688 992 l 399 401 l 110 992 l 0 992 l 343 290 z "},"Ỳ":{"ha":797,"x_min":0,"x_max":0,"o":"m 444 1117 l 549 1117 l 404 1318 l 283 1318 z m 201 0 l 311 0 l 797 992 l 688 992 l 399 401 l 110 992 l 0 992 l 343 290 z "},"Z":{"ha":925,"x_min":0,"x_max":0,"o":"m 69 0 l 844 0 l 844 94 l 199 94 l 849 897 l 849 992 l 92 992 l 92 897 l 719 897 l 69 94 z "},"Ź":{"ha":925,"x_min":0,"x_max":0,"o":"m 442 1117 l 603 1318 l 482 1318 l 338 1117 z m 69 0 l 844 0 l 844 94 l 199 94 l 849 897 l 849 992 l 92 992 l 92 897 l 719 897 l 69 94 z "},"Ž":{"ha":925,"x_min":0,"x_max":0,"o":"m 572 1365 l 464 1243 l 354 1365 l 299 1326 l 443 1140 l 483 1140 l 628 1326 z m 69 0 l 844 0 l 844 94 l 199 94 l 849 897 l 849 992 l 92 992 l 92 897 l 719 897 l 69 94 z "},"Ż":{"ha":925,"x_min":0,"x_max":0,"o":"m 461 1115 b 526 1183 496 1115 526 1146 b 461 1247 526 1217 496 1247 b 394 1183 424 1247 394 1217 b 461 1115 394 1146 424 1115 z m 69 0 l 844 0 l 844 94 l 199 94 l 849 897 l 849 992 l 92 992 l 92 897 l 719 897 l 69 94 z "},"a":{"ha":786,"x_min":0,"x_max":0,"o":"m 365 -15 b 596 97 458 -15 540 29 l 596 -3 l 689 -3 l 689 611 l 596 611 l 596 511 b 365 621 540 578 458 621 b 49 304 192 621 49 478 b 365 -15 49 133 192 -15 z m 363 76 b 146 304 239 76 146 183 b 363 529 146 428 239 529 b 590 304 483 529 590 428 b 363 76 590 183 483 76 z "},"á":{"ha":786,"x_min":0,"x_max":0,"o":"m 353 757 l 514 958 l 393 958 l 249 757 z m 365 -15 b 596 97 458 -15 540 29 l 596 -3 l 689 -3 l 689 611 l 596 611 l 596 511 b 365 621 540 578 458 621 b 49 304 192 621 49 478 b 365 -15 49 133 192 -15 z m 363 76 b 146 304 239 76 146 183 b 363 529 146 428 239 529 b 590 304 483 529 590 428 b 363 76 590 183 483 76 z "},"ă":{"ha":786,"x_min":0,"x_max":0,"o":"m 479 921 b 372 835 474 867 435 835 b 261 921 307 835 267 867 l 175 921 b 372 753 165 822 246 753 b 568 921 497 753 578 822 z m 365 -15 b 596 97 458 -15 540 29 l 596 -3 l 689 -3 l 689 611 l 596 611 l 596 511 b 365 621 540 578 458 621 b 49 304 192 621 49 478 b 365 -15 49 133 192 -15 z m 363 76 b 146 304 239 76 146 183 b 363 529 146 428 239 529 b 590 304 483 529 590 428 b 363 76 590 183 483 76 z "},"â":{"ha":786,"x_min":0,"x_max":0,"o":"m 482 746 l 538 785 l 393 971 l 353 971 l 208 785 l 264 746 l 374 868 z m 365 -15 b 596 97 458 -15 540 29 l 596 -3 l 689 -3 l 689 611 l 596 611 l 596 511 b 365 621 540 578 458 621 b 49 304 192 621 49 478 b 365 -15 49 133 192 -15 z m 363 76 b 146 304 239 76 146 183 b 363 529 146 428 239 529 b 590 304 483 529 590 428 b 363 76 590 183 483 76 z "},"ä":{"ha":786,"x_min":0,"x_max":0,"o":"m 239 757 b 301 822 272 757 301 786 b 239 883 301 854 272 883 b 175 822 203 883 175 854 b 239 757 175 786 203 757 z m 507 757 b 569 822 540 757 569 786 b 507 883 569 854 540 883 b 443 822 471 883 443 854 b 507 757 443 786 471 757 z m 365 -15 b 596 97 458 -15 540 29 l 596 -3 l 689 -3 l 689 611 l 596 611 l 596 511 b 365 621 540 578 458 621 b 49 304 192 621 49 478 b 365 -15 49 133 192 -15 z m 363 76 b 146 304 239 76 146 183 b 363 529 146 428 239 529 b 590 304 483 529 590 428 b 363 76 590 183 483 76 z "},"à":{"ha":786,"x_min":0,"x_max":0,"o":"m 397 757 l 501 757 l 357 958 l 236 958 z m 365 -15 b 596 97 458 -15 540 29 l 596 -3 l 689 -3 l 689 611 l 596 611 l 596 511 b 365 621 540 578 458 621 b 49 304 192 621 49 478 b 365 -15 49 133 192 -15 z m 363 76 b 146 304 239 76 146 183 b 363 529 146 428 239 529 b 590 304 483 529 590 428 b 363 76 590 183 483 76 z "},"ā":{"ha":786,"x_min":0,"x_max":0,"o":"m 100 833 l 100 751 l 647 751 l 647 833 z m 365 -15 b 596 97 458 -15 540 29 l 596 -3 l 689 -3 l 689 611 l 596 611 l 596 511 b 365 621 540 578 458 621 b 49 304 192 621 49 478 b 365 -15 49 133 192 -15 z m 363 76 b 146 304 239 76 146 183 b 363 529 146 428 239 529 b 590 304 483 529 590 428 b 363 76 590 183 483 76 z "},"ą":{"ha":786,"x_min":0,"x_max":0,"o":"m 365 -15 b 596 97 458 -15 540 29 l 596 -3 l 689 -3 l 689 611 l 596 611 l 596 511 b 365 621 540 578 458 621 b 49 304 192 621 49 478 b 365 -15 49 133 192 -15 z m 363 76 b 146 304 239 76 146 183 b 363 529 146 428 239 529 b 590 304 483 529 590 428 b 363 76 590 183 483 76 z m 925 -90 b 817 14 846 -131 718 -131 l 753 14 b 925 -175 619 -197 832 -224 z "},"å":{"ha":786,"x_min":0,"x_max":0,"o":"m 372 754 b 492 876 435 754 492 811 b 372 994 492 938 435 994 b 251 876 306 994 251 938 b 372 754 251 811 306 754 z m 372 814 b 311 876 338 814 311 842 b 372 935 311 907 338 935 b 432 876 404 935 432 907 b 372 814 432 842 404 814 z m 365 -15 b 596 97 458 -15 540 29 l 596 -3 l 689 -3 l 689 611 l 596 611 l 596 511 b 365 621 540 578 458 621 b 49 304 192 621 49 478 b 365 -15 49 133 192 -15 z m 363 76 b 146 304 239 76 146 183 b 363 529 146 428 239 529 b 590 304 483 529 590 428 b 363 76 590 183 483 76 z "},"ã":{"ha":786,"x_min":0,"x_max":0,"o":"m 439 743 b 575 872 553 743 575 843 l 489 872 b 439 822 489 872 488 822 b 314 881 400 822 392 881 b 178 751 200 881 178 781 l 264 751 b 314 801 264 751 265 801 b 439 743 356 801 369 743 z m 365 -15 b 596 97 458 -15 540 29 l 596 -3 l 689 -3 l 689 611 l 596 611 l 596 511 b 365 621 540 578 458 621 b 49 304 192 621 49 478 b 365 -15 49 133 192 -15 z m 363 76 b 146 304 239 76 146 183 b 363 529 146 428 239 529 b 590 304 483 529 590 428 b 363 76 590 183 483 76 z "},"æ":{"ha":1482,"x_min":0,"x_max":0,"o":"m 1229 304 b 913 621 1229 478 1086 621 b 689 528 825 621 746 585 l 689 611 l 596 611 l 596 511 b 365 621 540 578 458 621 b 49 304 192 621 49 478 b 365 -15 49 133 192 -15 b 596 97 458 -15 540 29 l 596 -3 l 689 -3 l 689 81 b 913 -15 746 22 825 -15 b 1197 161 1036 -15 1146 56 l 1082 161 b 913 76 1043 111 983 76 b 697 261 804 76 717 160 l 1229 261 z m 363 76 b 146 304 239 76 146 183 b 363 529 146 428 239 529 b 590 304 483 529 590 428 b 363 76 590 183 483 76 z m 913 529 b 1128 350 1019 529 1107 451 l 697 350 b 913 529 718 451 804 529 z "},"b":{"ha":786,"x_min":0,"x_max":0,"o":"m 97 0 l 190 0 l 190 97 b 421 -15 246 29 328 -15 b 738 304 594 -15 738 133 b 421 621 738 478 594 621 b 190 511 328 621 246 578 l 190 992 l 97 992 z m 424 76 b 196 304 303 76 196 183 b 424 529 196 428 303 529 b 640 304 547 529 640 428 b 424 76 640 183 547 76 z "},"c":{"ha":713,"x_min":0,"x_max":0,"o":"m 663 413 b 365 621 618 533 501 621 b 49 304 192 621 49 478 b 365 -15 49 133 192 -15 b 664 196 503 -15 621 72 l 558 196 b 365 76 521 126 450 76 b 146 304 242 76 146 183 b 365 529 146 428 242 529 b 558 413 450 529 521 482 z "},"ć":{"ha":713,"x_min":0,"x_max":0,"o":"m 346 757 l 507 958 l 386 958 l 242 757 z m 663 413 b 365 621 618 533 501 621 b 49 304 192 621 49 478 b 365 -15 49 133 192 -15 b 664 196 503 -15 621 72 l 558 196 b 365 76 521 126 450 76 b 146 304 242 76 146 183 b 365 529 146 428 242 529 b 558 413 450 529 521 482 z "},"č":{"ha":713,"x_min":0,"x_max":0,"o":"m 476 1006 l 368 883 l 258 1006 l 203 967 l 347 781 l 388 781 l 532 967 z m 663 413 b 365 621 618 533 501 621 b 49 304 192 621 49 478 b 365 -15 49 133 192 -15 b 664 196 503 -15 621 72 l 558 196 b 365 76 521 126 450 76 b 146 304 242 76 146 183 b 365 529 146 428 242 529 b 558 413 450 529 521 482 z "},"ç":{"ha":713,"x_min":0,"x_max":0,"o":"m 558 196 b 365 76 521 126 450 76 b 146 304 242 76 146 183 b 365 529 146 428 242 529 b 558 413 450 529 521 482 l 663 413 b 365 621 618 533 501 621 b 49 304 192 621 49 478 b 343 -14 49 140 179 -3 l 317 -72 l 375 -72 b 453 -133 418 -72 453 -100 b 375 -196 453 -168 418 -196 b 294 -133 331 -196 294 -168 l 225 -133 b 375 -250 225 -200 290 -250 b 524 -133 458 -250 524 -200 b 407 -21 524 -76 475 -32 l 411 -12 b 664 196 529 6 626 86 z "},"ċ":{"ha":713,"x_min":0,"x_max":0,"o":"m 365 756 b 431 824 400 756 431 786 b 365 888 431 857 400 888 b 299 824 328 888 299 857 b 365 756 299 786 328 756 z m 663 413 b 365 621 618 533 501 621 b 49 304 192 621 49 478 b 365 -15 49 133 192 -15 b 664 196 503 -15 621 72 l 558 196 b 365 76 521 126 450 76 b 146 304 242 76 146 183 b 365 529 146 428 242 529 b 558 413 450 529 521 482 z "},"d":{"ha":786,"x_min":0,"x_max":0,"o":"m 603 0 l 696 0 l 696 992 l 603 992 l 603 511 b 372 621 547 578 465 621 b 56 304 199 621 56 478 b 372 -15 56 133 199 -15 b 603 97 465 -15 547 29 z m 369 76 b 153 304 246 76 153 183 b 369 529 153 428 246 529 b 597 304 490 529 597 428 b 369 76 597 183 490 76 z "},"ð":{"ha":833,"x_min":0,"x_max":0,"o":"m 482 818 b 401 878 454 842 428 861 l 451 971 l 379 1010 l 331 919 b 138 975 239 964 168 969 l 138 879 b 285 832 175 871 228 858 l 238 744 l 308 704 l 356 793 b 419 746 378 779 399 764 b 542 556 481 694 518 625 b 351 621 489 597 422 621 b 35 304 178 621 35 478 b 351 -15 35 133 178 -15 b 668 288 519 -15 658 124 b 482 818 668 288 707 626 z m 351 76 b 132 304 228 76 132 183 b 351 529 132 428 228 529 b 571 304 475 529 571 428 b 351 76 571 183 475 76 z "},"ď":{"ha":786,"x_min":0,"x_max":0,"o":"m 63 743 l 107 743 l 174 869 b 189 922 181 883 189 901 b 113 999 189 964 154 999 b 35 922 69 999 35 964 b 89 849 35 888 57 858 z m 603 0 l 696 0 l 696 992 l 603 992 l 603 511 b 372 621 547 578 465 621 b 56 304 199 621 56 478 b 372 -15 56 133 199 -15 b 603 97 465 -15 547 29 z m 369 76 b 153 304 246 76 153 183 b 369 529 153 428 246 529 b 597 304 490 529 597 428 b 369 76 597 183 490 76 z "},"đ":{"ha":786,"x_min":0,"x_max":0,"o":"m 144 1193 l 144 1111 l 692 1111 l 692 1193 z m 603 0 l 696 0 l 696 992 l 603 992 l 603 511 b 372 621 547 578 465 621 b 56 304 199 621 56 478 b 372 -15 56 133 199 -15 b 603 97 465 -15 547 29 z m 369 76 b 153 304 246 76 153 183 b 369 529 153 428 246 529 b 597 304 490 529 597 428 b 369 76 597 183 490 76 z "},"e":{"ha":731,"x_min":0,"x_max":0,"o":"m 682 304 b 365 621 682 478 539 621 b 49 304 192 621 49 478 b 365 -15 49 133 192 -15 b 650 161 489 -15 599 56 l 535 161 b 365 76 496 111 436 76 b 150 261 257 76 169 160 l 682 261 z m 365 529 b 581 350 472 529 560 451 l 150 350 b 365 529 171 451 257 529 z "},"é":{"ha":731,"x_min":0,"x_max":0,"o":"m 515 938 l 394 938 l 250 736 l 354 736 z m 682 304 b 365 621 682 478 539 621 b 49 304 192 621 49 478 b 365 -15 49 133 192 -15 b 650 161 489 -15 599 56 l 535 161 b 365 76 496 111 436 76 b 150 261 257 76 169 160 l 682 261 z m 365 529 b 581 350 472 529 560 451 l 150 350 b 365 529 171 451 257 529 z "},"ě":{"ha":731,"x_min":0,"x_max":0,"o":"m 396 760 l 540 946 l 485 985 l 376 863 l 267 985 l 211 946 l 356 760 z m 682 304 b 365 621 682 478 539 621 b 49 304 192 621 49 478 b 365 -15 49 133 192 -15 b 650 161 489 -15 599 56 l 535 161 b 365 76 496 111 436 76 b 150 261 257 76 169 160 l 682 261 z m 365 529 b 581 350 472 529 560 451 l 150 350 b 365 529 171 451 257 529 z "},"ê":{"ha":731,"x_min":0,"x_max":0,"o":"m 375 847 l 483 725 l 539 764 l 394 950 l 354 950 l 210 764 l 265 725 z m 682 304 b 365 621 682 478 539 621 b 49 304 192 621 49 478 b 365 -15 49 133 192 -15 b 650 161 489 -15 599 56 l 535 161 b 365 76 496 111 436 76 b 150 261 257 76 169 160 l 682 261 z m 365 529 b 581 350 472 529 560 451 l 150 350 b 365 529 171 451 257 529 z "},"ë":{"ha":731,"x_min":0,"x_max":0,"o":"m 240 736 b 303 801 274 736 303 765 b 240 863 303 833 274 863 b 176 801 204 863 176 833 b 240 736 176 765 204 736 z m 508 736 b 571 801 542 736 571 765 b 508 863 571 833 542 863 b 444 801 472 863 444 833 b 508 736 444 765 472 736 z m 682 304 b 365 621 682 478 539 621 b 49 304 192 621 49 478 b 365 -15 49 133 192 -15 b 650 161 489 -15 599 56 l 535 161 b 365 76 496 111 436 76 b 150 261 257 76 169 160 l 682 261 z m 365 529 b 581 350 472 529 560 451 l 150 350 b 365 529 171 451 257 529 z "},"ė":{"ha":731,"x_min":0,"x_max":0,"o":"m 374 735 b 439 803 408 735 439 765 b 374 867 439 836 408 867 b 307 803 336 867 307 836 b 374 735 307 765 336 735 z m 682 304 b 365 621 682 478 539 621 b 49 304 192 621 49 478 b 365 -15 49 133 192 -15 b 650 161 489 -15 599 56 l 535 161 b 365 76 496 111 436 76 b 150 261 257 76 169 160 l 682 261 z m 365 529 b 581 350 472 529 560 451 l 150 350 b 365 529 171 451 257 529 z "},"è":{"ha":731,"x_min":0,"x_max":0,"o":"m 503 736 l 358 938 l 238 938 l 399 736 z m 682 304 b 365 621 682 478 539 621 b 49 304 192 621 49 478 b 365 -15 49 133 192 -15 b 650 161 489 -15 599 56 l 535 161 b 365 76 496 111 436 76 b 150 261 257 76 169 160 l 682 261 z m 365 529 b 581 350 472 529 560 451 l 150 350 b 365 529 171 451 257 529 z "},"ē":{"ha":731,"x_min":0,"x_max":0,"o":"m 649 813 l 101 813 l 101 731 l 649 731 z m 682 304 b 365 621 682 478 539 621 b 49 304 192 621 49 478 b 365 -15 49 133 192 -15 b 650 161 489 -15 599 56 l 535 161 b 365 76 496 111 436 76 b 150 261 257 76 169 160 l 682 261 z m 365 529 b 581 350 472 529 560 451 l 150 350 b 365 529 171 451 257 529 z "},"ę":{"ha":731,"x_min":0,"x_max":0,"o":"m 682 304 b 365 621 682 478 539 621 b 49 304 192 621 49 478 b 365 -15 49 133 192 -15 b 465 1 400 -15 433 -10 b 646 -175 349 -199 554 -222 l 646 -90 b 538 14 567 -131 439 -131 l 499 14 b 650 161 564 44 618 96 l 535 161 b 365 76 496 111 436 76 b 150 261 257 76 169 160 l 682 261 z m 365 529 b 581 350 472 529 560 451 l 150 350 b 365 529 171 451 257 529 z "},"f":{"ha":403,"x_min":0,"x_max":0,"o":"m 138 0 l 138 526 l 56 526 l 56 611 l 138 611 l 138 694 b 361 992 138 844 142 1022 l 361 906 b 231 694 218 924 231 785 l 231 611 l 354 611 l 354 526 l 231 526 l 231 0 z "},"g":{"ha":788,"x_min":0,"x_max":0,"o":"m 600 611 l 600 518 b 372 626 544 583 464 626 b 56 307 199 626 56 478 b 372 -10 56 133 199 -10 b 600 96 464 -10 544 32 l 600 56 b 381 -200 600 -135 504 -200 b 188 -81 296 -200 225 -150 l 82 -81 b 381 -292 125 -204 243 -292 b 697 56 554 -292 697 -185 l 697 611 z m 369 82 b 153 307 246 82 153 183 b 369 535 153 428 246 535 b 597 307 490 535 597 428 b 369 82 597 183 490 82 z "},"ğ":{"ha":788,"x_min":0,"x_max":0,"o":"m 386 753 b 582 921 511 753 592 822 l 493 921 b 386 835 488 867 449 835 b 275 921 321 835 281 867 l 189 921 b 386 753 179 822 260 753 z m 600 611 l 600 518 b 372 626 544 583 464 626 b 56 307 199 626 56 478 b 372 -10 56 133 199 -10 b 600 96 464 -10 544 32 l 600 56 b 381 -200 600 -135 504 -200 b 188 -81 296 -200 225 -150 l 82 -81 b 381 -292 125 -204 243 -292 b 697 56 554 -292 697 -185 l 697 611 z m 369 82 b 153 307 246 82 153 183 b 369 535 153 428 246 535 b 597 307 490 535 597 428 b 369 82 597 183 490 82 z "},"ģ":{"ha":788,"x_min":0,"x_max":0,"o":"m 600 611 l 600 518 b 372 626 544 583 464 626 b 56 307 199 626 56 478 b 372 -10 56 133 199 -10 b 600 96 464 -10 544 32 l 600 56 b 381 -200 600 -135 504 -200 b 188 -81 296 -200 225 -150 l 82 -81 b 381 -292 125 -204 243 -292 b 697 56 554 -292 697 -185 l 697 611 z m 369 82 b 153 307 246 82 153 183 b 369 535 153 428 246 535 b 597 307 490 535 597 428 b 369 82 597 183 490 82 z m 378 -340 b 300 -417 335 -340 300 -375 b 354 -490 300 -451 322 -481 l 328 -596 l 372 -596 l 439 -469 b 454 -417 446 -456 454 -437 b 378 -340 454 -375 419 -340 z "},"ġ":{"ha":788,"x_min":0,"x_max":0,"o":"m 386 756 b 451 824 421 756 451 786 b 386 888 451 857 421 888 b 319 824 349 888 319 857 b 386 756 319 786 349 756 z m 600 611 l 600 518 b 372 626 544 583 464 626 b 56 307 199 626 56 478 b 372 -10 56 133 199 -10 b 600 96 464 -10 544 32 l 600 56 b 381 -200 600 -135 504 -200 b 188 -81 296 -200 225 -150 l 82 -81 b 381 -292 125 -204 243 -292 b 697 56 554 -292 697 -185 l 697 611 z m 369 82 b 153 307 246 82 153 183 b 369 535 153 428 246 535 b 597 307 490 535 597 428 b 369 82 597 183 490 82 z "},"h":{"ha":724,"x_min":0,"x_max":0,"o":"m 97 0 l 190 0 l 190 325 b 390 529 190 460 267 529 b 547 349 492 529 547 469 l 547 0 l 640 0 l 640 349 b 390 621 640 543 565 621 b 190 538 307 621 239 590 l 190 1047 l 97 1047 z "},"ħ":{"ha":710,"x_min":0,"x_max":0,"o":"m 390 621 b 190 538 307 621 239 590 l 190 861 l 367 861 l 367 929 l 190 929 l 190 1047 l 97 1047 l 97 929 l -1 929 l -1 861 l 97 861 l 97 0 l 190 0 l 190 325 b 390 529 190 460 267 529 b 547 349 492 529 547 469 l 547 0 l 640 0 l 640 349 b 390 621 640 543 565 621 z "},"i":{"ha":299,"x_min":0,"x_max":0,"o":"m 150 735 b 215 801 185 735 215 764 b 150 865 215 835 185 865 b 83 801 113 865 83 835 b 150 735 83 764 113 735 z m 103 0 l 200 0 l 200 611 l 103 611 z "},"ı":{"ha":236,"x_min":0,"x_max":0,"o":"m 69 0 l 167 0 l 167 611 l 69 611 z "},"í":{"ha":236,"x_min":0,"x_max":0,"o":"m 100 757 l 261 958 l 140 958 l -4 757 z m 69 0 l 167 0 l 167 611 l 69 611 z "},"î":{"ha":236,"x_min":0,"x_max":0,"o":"m 229 746 l 285 785 l 140 971 l 100 971 l -44 785 l 11 746 l 121 868 z m 69 0 l 167 0 l 167 611 l 69 611 z "},"ï":{"ha":236,"x_min":0,"x_max":0,"o":"m -14 757 b 49 822 19 757 49 786 b -14 883 49 854 19 883 b -78 822 -50 883 -78 854 b -14 757 -78 786 -50 757 z m 254 757 b 317 822 288 757 317 786 b 254 883 317 854 288 883 b 190 822 218 883 190 854 b 254 757 190 786 218 757 z m 69 0 l 167 0 l 167 611 l 69 611 z "},"ì":{"ha":236,"x_min":0,"x_max":0,"o":"m 144 757 l 249 757 l 104 958 l -17 958 z m 69 0 l 167 0 l 167 611 l 69 611 z "},"ĳ":{"ha":610,"x_min":0,"x_max":0,"o":"m 150 735 b 215 801 185 735 215 764 b 150 865 215 835 185 865 b 83 801 113 865 83 835 b 150 735 83 764 113 735 z m 492 735 b 557 801 526 735 557 764 b 492 865 557 835 526 865 b 425 801 454 865 425 835 b 492 735 425 764 454 735 z m 103 0 l 200 0 l 200 611 l 103 611 z m 540 611 l 443 611 l 443 0 b 299 -192 446 -110 393 -192 l 300 -283 b 540 0 457 -283 543 -175 z "},"ī":{"ha":236,"x_min":0,"x_max":0,"o":"m -153 833 l -153 751 l 394 751 l 394 833 z m 69 0 l 167 0 l 167 611 l 69 611 z "},"į":{"ha":236,"x_min":0,"x_max":0,"o":"m 119 756 b 185 824 154 756 185 786 b 119 888 185 857 154 888 b 53 824 82 888 53 857 b 119 756 53 786 82 756 z m 69 0 l 167 0 l 167 611 l 69 611 z m 403 -90 b 294 14 324 -131 196 -131 l 231 14 b 403 -175 97 -197 310 -224 z "},"j":{"ha":311,"x_min":0,"x_max":0,"o":"m 193 735 b 258 801 228 735 258 764 b 193 865 258 835 228 865 b 126 801 156 865 126 835 b 193 735 126 764 156 735 z m 242 611 l 144 611 l 144 0 b 0 -192 147 -110 94 -192 l 1 -283 b 242 0 158 -283 244 -175 z "},"k":{"ha":640,"x_min":0,"x_max":0,"o":"m 90 0 l 90 992 l 183 992 l 183 401 l 204 401 l 432 624 l 563 624 l 311 381 l 640 0 l 515 0 l 243 314 l 183 256 l 183 0 z "},"ķ":{"ha":640,"x_min":0,"x_max":0,"o":"m 90 0 l 90 992 l 183 992 l 183 401 l 204 401 l 432 624 l 563 624 l 311 381 l 640 0 l 515 0 l 243 314 l 183 256 l 183 0 z m 265 -353 l 310 -353 l 376 -226 b 392 -174 383 -212 392 -194 b 315 -97 392 -132 357 -97 b 238 -174 272 -97 238 -132 b 292 -247 238 -208 260 -237 z "},"l":{"ha":274,"x_min":0,"x_max":0,"o":"m 90 0 l 183 0 l 183 992 l 90 992 z "},"ĺ":{"ha":274,"x_min":0,"x_max":0,"o":"m 114 1117 l 275 1318 l 154 1318 l 10 1117 z m 90 0 l 183 0 l 183 992 l 90 992 z "},"ľ":{"ha":418,"x_min":0,"x_max":0,"o":"m 286 743 l 331 743 l 397 869 b 413 922 404 883 413 901 b 336 999 413 964 378 999 b 258 922 293 999 258 964 b 313 849 258 888 281 858 z m 90 0 l 183 0 l 183 992 l 90 992 z "},"ļ":{"ha":274,"x_min":0,"x_max":0,"o":"m 90 0 l 183 0 l 183 992 l 90 992 z m 78 -353 l 122 -353 l 189 -226 b 204 -174 196 -212 204 -194 b 128 -97 204 -132 169 -97 b 50 -174 85 -97 50 -132 b 104 -247 50 -208 72 -237 z "},"ŀ":{"ha":274,"x_min":0,"x_max":0,"o":"m 90 0 l 183 0 l 183 992 l 90 992 z m 356 350 b 432 429 394 350 432 389 b 356 504 432 465 393 504 b 278 429 311 504 278 465 b 356 350 278 389 311 350 z "},"ł":{"ha":274,"x_min":0,"x_max":0,"o":"m 322 611 l 183 540 l 183 992 l 90 992 l 90 493 l -50 422 l -50 335 l 90 406 l 90 0 l 183 0 l 183 453 l 322 524 z "},"m":{"ha":1099,"x_min":0,"x_max":0,"o":"m 779 621 b 572 503 688 621 615 578 b 367 621 540 586 474 621 b 183 538 290 621 228 590 l 183 611 l 90 611 l 90 0 l 183 0 l 183 318 b 367 529 183 467 254 529 b 503 349 457 529 503 469 l 503 0 l 596 0 l 596 318 b 779 529 596 467 667 529 b 915 349 869 529 915 469 l 915 0 l 1008 0 l 1008 349 b 779 621 1008 543 938 621 z "},"n":{"ha":724,"x_min":0,"x_max":0,"o":"m 97 0 l 190 0 l 190 325 b 390 529 190 463 267 532 b 547 349 492 529 547 469 l 547 0 l 640 0 l 640 349 b 390 621 640 543 565 621 b 190 538 307 621 239 590 l 190 611 l 97 611 z "},"ń":{"ha":724,"x_min":0,"x_max":0,"o":"m 346 757 l 507 958 l 386 958 l 242 757 z m 97 0 l 190 0 l 190 325 b 390 529 190 463 267 532 b 547 349 492 529 547 469 l 547 0 l 640 0 l 640 349 b 390 621 640 543 565 621 b 190 538 307 621 239 590 l 190 611 l 97 611 z "},"ň":{"ha":724,"x_min":0,"x_max":0,"o":"m 476 1006 l 368 883 l 258 1006 l 203 967 l 347 781 l 388 781 l 532 967 z m 97 0 l 190 0 l 190 325 b 390 529 190 463 267 532 b 547 349 492 529 547 469 l 547 0 l 640 0 l 640 349 b 390 621 640 543 565 621 b 190 538 307 621 239 590 l 190 611 l 97 611 z "},"ņ":{"ha":724,"x_min":0,"x_max":0,"o":"m 97 0 l 190 0 l 190 325 b 390 529 190 463 267 532 b 547 349 492 529 547 469 l 547 0 l 640 0 l 640 349 b 390 621 640 543 565 621 b 190 538 307 621 239 590 l 190 611 l 97 611 z m 360 -353 l 404 -353 l 471 -226 b 486 -174 478 -212 486 -194 b 410 -97 486 -132 451 -97 b 332 -174 367 -97 332 -132 b 386 -247 332 -208 354 -237 z "},"ŋ":{"ha":724,"x_min":0,"x_max":0,"o":"m 390 621 b 190 538 307 621 239 590 l 190 611 l 97 611 l 97 0 l 190 0 l 190 325 b 390 529 190 463 267 532 b 547 349 492 529 547 469 l 547 0 b 449 -168 544 -65 528 -124 l 547 -168 b 640 0 625 -124 638 -65 l 640 349 b 390 621 640 543 565 621 z "},"ñ":{"ha":724,"x_min":0,"x_max":0,"o":"m 432 743 b 568 872 546 743 568 843 l 482 872 b 432 822 482 872 481 822 b 307 881 393 822 385 881 b 171 751 193 881 171 781 l 257 751 b 307 801 257 751 258 801 b 432 743 349 801 363 743 z m 97 0 l 190 0 l 190 325 b 390 529 190 463 267 532 b 547 349 492 529 547 469 l 547 0 l 640 0 l 640 349 b 390 621 640 543 565 621 b 190 538 307 621 239 590 l 190 611 l 97 611 z "},"o":{"ha":731,"x_min":0,"x_max":0,"o":"m 365 -15 b 682 304 539 -15 682 133 b 365 621 682 478 539 621 b 49 304 192 621 49 478 b 365 -15 49 133 192 -15 z m 365 529 b 585 304 489 529 585 428 b 365 76 585 183 489 76 b 146 304 242 76 146 183 b 365 529 146 428 242 529 z "},"ó":{"ha":731,"x_min":0,"x_max":0,"o":"m 346 757 l 507 958 l 386 958 l 242 757 z m 365 -15 b 682 304 539 -15 682 133 b 365 621 682 478 539 621 b 49 304 192 621 49 478 b 365 -15 49 133 192 -15 z m 365 529 b 585 304 489 529 585 428 b 365 76 585 183 489 76 b 146 304 242 76 146 183 b 365 529 146 428 242 529 z "},"ô":{"ha":731,"x_min":0,"x_max":0,"o":"m 475 746 l 531 785 l 386 971 l 346 971 l 201 785 l 257 746 l 367 868 z m 365 -15 b 682 304 539 -15 682 133 b 365 621 682 478 539 621 b 49 304 192 621 49 478 b 365 -15 49 133 192 -15 z m 365 529 b 585 304 489 529 585 428 b 365 76 585 183 489 76 b 146 304 242 76 146 183 b 365 529 146 428 242 529 z "},"ö":{"ha":731,"x_min":0,"x_max":0,"o":"m 232 757 b 294 822 265 757 294 786 b 232 883 294 854 265 883 b 168 822 196 883 168 854 b 232 757 168 786 196 757 z m 500 757 b 563 822 533 757 563 786 b 500 883 563 854 533 883 b 436 822 464 883 436 854 b 500 757 436 786 464 757 z m 365 -15 b 682 304 539 -15 682 133 b 365 621 682 478 539 621 b 49 304 192 621 49 478 b 365 -15 49 133 192 -15 z m 365 529 b 585 304 489 529 585 428 b 365 76 585 183 489 76 b 146 304 242 76 146 183 b 365 529 146 428 242 529 z "},"ò":{"ha":731,"x_min":0,"x_max":0,"o":"m 390 757 l 494 757 l 350 958 l 229 958 z m 365 -15 b 682 304 539 -15 682 133 b 365 621 682 478 539 621 b 49 304 192 621 49 478 b 365 -15 49 133 192 -15 z m 365 529 b 585 304 489 529 585 428 b 365 76 585 183 489 76 b 146 304 242 76 146 183 b 365 529 146 428 242 529 z "},"ő":{"ha":731,"x_min":0,"x_max":0,"o":"m 190 719 l 294 719 l 456 921 l 335 921 z m 417 719 l 521 719 l 682 921 l 561 921 z m 365 -15 b 682 304 539 -15 682 133 b 365 621 682 478 539 621 b 49 304 192 621 49 478 b 365 -15 49 133 192 -15 z m 365 529 b 585 304 489 529 585 428 b 365 76 585 183 489 76 b 146 304 242 76 146 183 b 365 529 146 428 242 529 z "},"ō":{"ha":731,"x_min":0,"x_max":0,"o":"m 93 833 l 93 751 l 640 751 l 640 833 z m 365 -15 b 682 304 539 -15 682 133 b 365 621 682 478 539 621 b 49 304 192 621 49 478 b 365 -15 49 133 192 -15 z m 365 529 b 585 304 489 529 585 428 b 365 76 585 183 489 76 b 146 304 242 76 146 183 b 365 529 146 428 242 529 z "},"ø":{"ha":703,"x_min":0,"x_max":0,"o":"m 543 710 l 458 739 l 418 617 b 365 621 401 619 383 621 b 49 304 192 621 49 478 b 224 19 49 183 119 74 l 186 -93 l 271 -122 l 307 -10 b 365 -15 326 -14 346 -15 b 682 304 539 -15 682 133 b 503 589 682 428 608 538 z m 146 304 b 365 529 146 428 242 529 b 389 528 374 529 382 529 l 253 110 b 146 304 188 150 146 224 z m 365 76 b 336 78 356 76 346 76 l 474 500 b 585 304 540 461 585 388 b 365 76 585 183 489 76 z "},"õ":{"ha":731,"x_min":0,"x_max":0,"o":"m 432 743 b 568 872 546 743 568 843 l 482 872 b 432 822 482 872 481 822 b 307 881 393 822 385 881 b 171 751 193 881 171 781 l 257 751 b 307 801 257 751 258 801 b 432 743 349 801 363 743 z m 365 -15 b 682 304 539 -15 682 133 b 365 621 682 478 539 621 b 49 304 192 621 49 478 b 365 -15 49 133 192 -15 z m 365 529 b 585 304 489 529 585 428 b 365 76 585 183 489 76 b 146 304 242 76 146 183 b 365 529 146 428 242 529 z "},"œ":{"ha":1406,"x_min":0,"x_max":0,"o":"m 1257 304 b 940 621 1257 478 1114 621 b 668 464 825 621 722 557 b 394 621 613 557 510 621 b 78 304 221 621 78 478 b 394 -15 78 133 221 -15 b 668 144 510 -15 613 50 b 940 -15 722 50 825 -15 b 1225 161 1064 -15 1174 56 l 1110 161 b 940 76 1071 111 1011 76 b 725 261 832 76 744 160 l 1257 261 z m 394 76 b 175 304 271 76 175 183 b 394 529 175 428 271 529 b 614 304 518 529 614 428 b 394 76 614 183 518 76 z m 940 529 b 1156 350 1047 529 1135 451 l 725 350 b 940 529 746 451 832 529 z "},"p":{"ha":765,"x_min":0,"x_max":0,"o":"m 407 621 b 176 511 314 621 232 578 l 176 611 l 83 611 l 83 -278 l 176 -278 l 176 97 b 407 -15 232 29 314 -15 b 724 304 581 -15 724 133 b 407 621 724 478 581 621 z m 410 76 b 182 304 289 76 182 183 b 410 529 182 428 289 529 b 626 304 533 529 626 428 b 410 76 626 183 533 76 z "},"þ":{"ha":833,"x_min":0,"x_max":0,"o":"m 213 826 l 111 826 l 111 -165 l 213 -165 l 213 -15 b 682 304 547 -15 682 76 b 213 621 682 531 547 621 z m 213 531 b 585 304 478 531 585 465 b 213 76 585 142 478 76 z "},"q":{"ha":786,"x_min":0,"x_max":0,"o":"m 603 -278 l 696 -278 l 696 611 l 603 611 l 603 511 b 372 621 547 578 465 621 b 56 304 199 621 56 478 b 372 -15 56 133 199 -15 b 603 97 465 -15 547 29 z m 369 76 b 153 304 246 76 153 183 b 369 529 153 428 246 529 b 597 304 490 529 597 428 b 369 76 597 183 490 76 z "},"r":{"ha":425,"x_min":0,"x_max":0,"o":"m 190 611 l 97 611 l 97 0 l 190 0 l 190 338 b 397 529 190 463 289 529 l 397 621 b 190 528 313 621 240 585 z "},"ŕ":{"ha":425,"x_min":0,"x_max":0,"o":"m 221 757 l 382 958 l 261 958 l 117 757 z m 190 611 l 97 611 l 97 0 l 190 0 l 190 338 b 397 529 190 463 289 529 l 397 621 b 190 528 313 621 240 585 z "},"ř":{"ha":425,"x_min":0,"x_max":0,"o":"m 351 1006 l 243 883 l 133 1006 l 78 967 l 222 781 l 263 781 l 407 967 z m 190 611 l 97 611 l 97 0 l 190 0 l 190 338 b 397 529 190 463 289 529 l 397 621 b 190 528 313 621 240 585 z "},"ŗ":{"ha":425,"x_min":0,"x_max":0,"o":"m 190 611 l 97 611 l 97 0 l 190 0 l 190 338 b 397 529 190 463 289 529 l 397 621 b 190 528 313 621 240 585 z m 182 -353 l 226 -353 l 293 -226 b 308 -174 300 -212 308 -194 b 232 -97 308 -132 274 -97 b 154 -174 189 -97 154 -132 b 208 -247 154 -208 176 -237 z "},"s":{"ha":581,"x_min":0,"x_max":0,"o":"m 501 461 b 290 621 492 554 411 621 b 79 453 151 621 79 546 b 290 274 79 356 144 303 b 440 174 401 251 440 232 b 290 78 440 118 381 78 b 140 174 211 78 149 122 l 56 174 b 290 -10 61 67 153 -10 b 525 174 443 -10 525 67 b 306 361 525 275 463 329 b 165 453 206 381 165 407 b 290 533 165 499 217 533 b 417 461 363 533 408 503 z "},"ś":{"ha":581,"x_min":0,"x_max":0,"o":"m 271 757 l 432 958 l 311 958 l 167 757 z m 501 461 b 290 621 492 554 411 621 b 79 453 151 621 79 546 b 290 274 79 356 144 303 b 440 174 401 251 440 232 b 290 78 440 118 381 78 b 140 174 211 78 149 122 l 56 174 b 290 -10 61 67 153 -10 b 525 174 443 -10 525 67 b 306 361 525 275 463 329 b 165 453 206 381 165 407 b 290 533 165 499 217 533 b 417 461 363 533 408 503 z "},"š":{"ha":581,"x_min":0,"x_max":0,"o":"m 401 1006 l 293 883 l 183 1006 l 128 967 l 272 781 l 313 781 l 457 967 z m 501 461 b 290 621 492 554 411 621 b 79 453 151 621 79 546 b 290 274 79 356 144 303 b 440 174 401 251 440 232 b 290 78 440 118 381 78 b 140 174 211 78 149 122 l 56 174 b 290 -10 61 67 153 -10 b 525 174 443 -10 525 67 b 306 361 525 275 463 329 b 165 453 206 381 165 407 b 290 533 165 499 217 533 b 417 461 363 533 408 503 z "},"ş":{"ha":581,"x_min":0,"x_max":0,"o":"m 525 174 b 306 361 525 275 463 329 b 165 453 206 381 165 407 b 290 533 165 499 217 533 b 417 461 363 533 408 503 l 501 461 b 290 621 492 554 411 621 b 79 453 151 621 79 546 b 290 274 79 356 144 303 b 440 174 401 251 440 232 b 290 78 440 118 381 78 b 140 174 211 78 149 122 l 56 174 b 257 -8 61 75 139 3 l 228 -72 l 286 -72 b 364 -133 329 -72 364 -100 b 286 -196 364 -168 329 -196 b 206 -133 242 -196 206 -168 l 136 -133 b 286 -250 136 -200 201 -250 b 435 -133 369 -250 435 -200 b 318 -21 435 -76 386 -32 l 324 -8 b 525 174 456 1 525 75 z "},"ș":{"ha":581,"x_min":0,"x_max":0,"o":"m 501 461 b 290 621 492 554 411 621 b 79 453 151 621 79 546 b 290 274 79 356 144 303 b 440 174 401 251 440 232 b 290 78 440 118 381 78 b 140 174 211 78 149 122 l 56 174 b 290 -10 61 67 153 -10 b 525 174 443 -10 525 67 b 306 361 525 275 463 329 b 165 453 206 381 165 407 b 290 533 165 499 217 533 b 417 461 363 533 408 503 z m 232 -353 l 276 -353 l 343 -226 b 358 -174 350 -212 358 -194 b 282 -97 358 -132 324 -97 b 204 -174 239 -97 204 -132 b 258 -247 204 -208 226 -237 z "},"ß":{"ha":678,"x_min":0,"x_max":0,"o":"m 93 0 l 190 0 l 190 779 b 306 894 190 843 238 894 b 453 756 389 894 453 844 b 365 519 453 667 365 622 b 525 236 365 415 525 358 b 314 82 525 114 440 82 l 314 -15 b 622 236 504 -15 622 42 b 463 519 622 399 463 463 b 550 756 463 585 550 638 b 306 992 550 897 453 992 b 93 781 215 992 93 942 z "},"t":{"ha":392,"x_min":0,"x_max":0,"o":"m 364 526 l 364 611 l 226 611 l 226 851 l 133 851 l 133 611 l 42 611 l 42 526 l 133 526 l 133 0 l 226 0 l 226 526 z "},"ŧ":{"ha":392,"x_min":0,"x_max":0,"o":"m 364 526 l 364 611 l 226 611 l 226 851 l 133 851 l 133 611 l 42 611 l 42 526 l 133 526 l 133 393 l 42 393 l 42 336 l 133 336 l 133 0 l 226 0 l 226 336 l 364 336 l 364 393 l 226 393 l 226 526 z "},"ť":{"ha":392,"x_min":0,"x_max":0,"o":"m 303 743 l 347 743 l 414 869 b 429 922 421 883 429 901 b 353 999 429 964 394 999 b 275 922 310 999 275 964 b 329 849 275 888 297 858 z m 364 526 l 364 611 l 226 611 l 226 851 l 133 851 l 133 611 l 42 611 l 42 526 l 133 526 l 133 0 l 226 0 l 226 526 z "},"ţ":{"ha":392,"x_min":0,"x_max":0,"o":"m 226 0 l 226 526 l 364 526 l 364 611 l 226 611 l 226 851 l 133 851 l 133 611 l 42 611 l 42 526 l 133 526 l 133 0 l 158 0 l 125 -72 l 183 -72 b 261 -133 226 -72 261 -100 b 183 -196 261 -168 226 -196 b 103 -133 139 -196 103 -168 l 33 -133 b 183 -250 33 -200 99 -250 b 332 -133 267 -250 332 -200 b 215 -21 332 -76 283 -32 l 225 0 z "},"ț":{"ha":392,"x_min":0,"x_max":0,"o":"m 364 526 l 364 611 l 226 611 l 226 851 l 133 851 l 133 611 l 42 611 l 42 526 l 133 526 l 133 0 l 226 0 l 226 526 z m 129 -353 l 174 -353 l 240 -226 b 256 -174 247 -212 256 -194 b 179 -97 256 -132 221 -97 b 101 -174 136 -97 101 -132 b 156 -247 101 -208 124 -237 z "},"u":{"ha":724,"x_min":0,"x_max":0,"o":"m 626 611 l 533 611 l 533 286 b 333 82 533 151 457 82 b 176 263 232 82 176 142 l 176 611 l 83 611 l 83 263 b 333 -10 83 68 158 -10 b 533 74 417 -10 485 21 l 533 0 l 626 0 z "},"ú":{"ha":724,"x_min":0,"x_max":0,"o":"m 331 757 l 492 958 l 371 958 l 226 757 z m 626 611 l 533 611 l 533 286 b 333 82 533 151 457 82 b 176 263 232 82 176 142 l 176 611 l 83 611 l 83 263 b 333 -10 83 68 158 -10 b 533 74 417 -10 485 21 l 533 0 l 626 0 z "},"û":{"ha":724,"x_min":0,"x_max":0,"o":"m 460 746 l 515 785 l 371 971 l 331 971 l 186 785 l 242 746 l 351 868 z m 626 611 l 533 611 l 533 286 b 333 82 533 151 457 82 b 176 263 232 82 176 142 l 176 611 l 83 611 l 83 263 b 333 -10 83 68 158 -10 b 533 74 417 -10 485 21 l 533 0 l 626 0 z "},"ü":{"ha":724,"x_min":0,"x_max":0,"o":"m 217 757 b 279 822 250 757 279 786 b 217 883 279 854 250 883 b 153 822 181 883 153 854 b 217 757 153 786 181 757 z m 485 757 b 547 822 518 757 547 786 b 485 883 547 854 518 883 b 421 822 449 883 421 854 b 485 757 421 786 449 757 z m 626 611 l 533 611 l 533 286 b 333 82 533 151 457 82 b 176 263 232 82 176 142 l 176 611 l 83 611 l 83 263 b 333 -10 83 68 158 -10 b 533 74 417 -10 485 21 l 533 0 l 626 0 z "},"ù":{"ha":724,"x_min":0,"x_max":0,"o":"m 375 757 l 479 757 l 335 958 l 214 958 z m 626 611 l 533 611 l 533 286 b 333 82 533 151 457 82 b 176 263 232 82 176 142 l 176 611 l 83 611 l 83 263 b 333 -10 83 68 158 -10 b 533 74 417 -10 485 21 l 533 0 l 626 0 z "},"ű":{"ha":724,"x_min":0,"x_max":0,"o":"m 175 719 l 279 719 l 440 921 l 319 921 z m 401 719 l 506 719 l 667 921 l 546 921 z m 626 611 l 533 611 l 533 286 b 333 82 533 151 457 82 b 176 263 232 82 176 142 l 176 611 l 83 611 l 83 263 b 333 -10 83 68 158 -10 b 533 74 417 -10 485 21 l 533 0 l 626 0 z "},"ū":{"ha":724,"x_min":0,"x_max":0,"o":"m 78 833 l 78 751 l 625 751 l 625 833 z m 626 611 l 533 611 l 533 286 b 333 82 533 151 457 82 b 176 263 232 82 176 142 l 176 611 l 83 611 l 83 263 b 333 -10 83 68 158 -10 b 533 74 417 -10 485 21 l 533 0 l 626 0 z "},"ų":{"ha":724,"x_min":0,"x_max":0,"o":"m 626 0 l 626 611 l 533 611 l 533 286 b 333 82 533 151 457 82 b 176 263 232 82 176 142 l 176 611 l 83 611 l 83 263 b 333 -10 83 68 158 -10 b 533 74 417 -10 485 21 l 533 0 l 551 0 b 724 -189 418 -211 631 -237 l 724 -104 b 615 0 644 -144 517 -144 z "},"ů":{"ha":724,"x_min":0,"x_max":0,"o":"m 350 754 b 469 876 413 754 469 811 b 350 994 469 938 413 994 b 229 876 283 994 229 938 b 350 754 229 811 283 754 z m 350 814 b 289 876 315 814 289 842 b 350 935 289 907 315 935 b 410 876 382 935 410 907 b 350 814 410 842 382 814 z m 626 611 l 533 611 l 533 286 b 333 82 533 151 457 82 b 176 263 232 82 176 142 l 176 611 l 83 611 l 83 263 b 333 -10 83 68 158 -10 b 533 74 417 -10 485 21 l 533 0 l 626 0 z "},"v":{"ha":621,"x_min":0,"x_max":0,"o":"m 260 0 l 361 0 l 613 611 l 511 611 l 311 124 l 110 611 l 8 611 z "},"w":{"ha":1003,"x_min":0,"x_max":0,"o":"m 1003 611 l 906 611 l 728 131 l 550 611 l 453 611 l 275 131 l 97 611 l 0 611 l 226 0 l 324 0 l 501 481 l 679 0 l 776 0 z "},"ẃ":{"ha":1003,"x_min":0,"x_max":0,"o":"m 481 757 l 642 958 l 521 958 l 376 757 z m 1003 611 l 906 611 l 728 131 l 550 611 l 453 611 l 275 131 l 97 611 l 0 611 l 226 0 l 324 0 l 501 481 l 679 0 l 776 0 z "},"ŵ":{"ha":1003,"x_min":0,"x_max":0,"o":"m 610 746 l 665 785 l 521 971 l 481 971 l 336 785 l 392 746 l 501 868 z m 1003 611 l 906 611 l 728 131 l 550 611 l 453 611 l 275 131 l 97 611 l 0 611 l 226 0 l 324 0 l 501 481 l 679 0 l 776 0 z "},"ẅ":{"ha":1003,"x_min":0,"x_max":0,"o":"m 367 757 b 429 822 400 757 429 786 b 367 883 429 854 400 883 b 303 822 331 883 303 854 b 367 757 303 786 331 757 z m 635 757 b 697 822 668 757 697 786 b 635 883 697 854 668 883 b 571 822 599 883 571 854 b 635 757 571 786 599 757 z m 1003 611 l 906 611 l 728 131 l 550 611 l 453 611 l 275 131 l 97 611 l 0 611 l 226 0 l 324 0 l 501 481 l 679 0 l 776 0 z "},"ẁ":{"ha":1003,"x_min":0,"x_max":0,"o":"m 525 757 l 629 757 l 485 958 l 364 958 z m 1003 611 l 906 611 l 728 131 l 550 611 l 453 611 l 275 131 l 97 611 l 0 611 l 226 0 l 324 0 l 501 481 l 679 0 l 776 0 z "},"x":{"ha":636,"x_min":0,"x_max":0,"o":"m 21 0 l 135 0 l 314 239 l 494 0 l 608 0 l 371 315 l 593 611 l 479 611 l 314 392 l 149 611 l 35 611 l 257 315 z "},"y":{"ha":660,"x_min":0,"x_max":0,"o":"m 389 68 l 660 611 l 550 611 l 333 179 l 118 611 l 8 611 l 279 69 l 106 -278 l 215 -278 z "},"ý":{"ha":660,"x_min":0,"x_max":0,"o":"m 306 736 l 467 938 l 346 938 l 201 736 z m 389 68 l 660 611 l 550 611 l 333 179 l 118 611 l 8 611 l 279 69 l 106 -278 l 215 -278 z "},"ŷ":{"ha":660,"x_min":0,"x_max":0,"o":"m 435 725 l 490 764 l 346 950 l 306 950 l 161 764 l 217 725 l 326 847 z m 389 68 l 660 611 l 550 611 l 333 179 l 118 611 l 8 611 l 279 69 l 106 -278 l 215 -278 z "},"ÿ":{"ha":660,"x_min":0,"x_max":0,"o":"m 192 736 b 254 801 225 736 254 765 b 192 863 254 833 225 863 b 128 801 156 863 128 833 b 192 736 128 765 156 736 z m 460 736 b 522 801 493 736 522 765 b 460 863 522 833 493 863 b 396 801 424 863 396 833 b 460 736 396 765 424 736 z m 389 68 l 660 611 l 550 611 l 333 179 l 118 611 l 8 611 l 279 69 l 106 -278 l 215 -278 z "},"ỳ":{"ha":660,"x_min":0,"x_max":0,"o":"m 350 736 l 454 736 l 310 938 l 189 938 z m 389 68 l 660 611 l 550 611 l 333 179 l 118 611 l 8 611 l 279 69 l 106 -278 l 215 -278 z "},"z":{"ha":593,"x_min":0,"x_max":0,"o":"m 538 89 l 186 89 l 529 522 l 529 611 l 69 611 l 69 522 l 413 522 l 69 89 l 69 0 l 538 0 z "},"ź":{"ha":593,"x_min":0,"x_max":0,"o":"m 272 736 l 433 938 l 313 938 l 168 736 z m 538 89 l 186 89 l 529 522 l 529 611 l 69 611 l 69 522 l 413 522 l 69 89 l 69 0 l 538 0 z "},"ž":{"ha":593,"x_min":0,"x_max":0,"o":"m 403 985 l 294 863 l 185 985 l 129 946 l 274 760 l 314 760 l 458 946 z m 538 89 l 186 89 l 529 522 l 529 611 l 69 611 l 69 522 l 413 522 l 69 89 l 69 0 l 538 0 z "},"ż":{"ha":593,"x_min":0,"x_max":0,"o":"m 292 735 b 357 803 326 735 357 765 b 292 867 357 836 326 867 b 225 803 254 867 225 836 b 292 735 225 765 254 735 z m 538 89 l 186 89 l 529 522 l 529 611 l 69 611 l 69 522 l 413 522 l 69 89 l 69 0 l 538 0 z "},"ﬁ":{"ha":582,"x_min":0,"x_max":0,"o":"m 231 611 l 231 694 b 361 906 231 785 218 924 l 361 992 b 138 694 142 1022 138 844 l 138 611 l 56 611 l 56 526 l 138 526 l 138 0 l 231 0 l 231 526 l 418 526 l 418 0 l 511 0 l 511 611 z m 464 736 b 526 801 497 736 526 765 b 464 863 526 833 497 863 b 400 801 428 863 400 833 b 464 736 400 765 428 736 z "},"ﬂ":{"ha":613,"x_min":0,"x_max":0,"o":"m 432 992 b 138 694 142 1032 138 844 l 138 611 l 56 611 l 56 526 l 138 526 l 138 0 l 231 0 l 231 526 l 340 526 l 340 611 l 231 611 l 231 694 b 429 906 231 785 218 936 l 429 0 l 522 0 l 522 992 z "},"ª":{"ha":786,"x_min":0,"x_max":0,"o":"m 365 -15 b 596 97 458 -15 540 29 l 596 -3 l 689 -3 l 689 611 l 596 611 l 596 511 b 365 621 540 578 458 621 b 49 304 192 621 49 478 b 365 -15 49 133 192 -15 z m 363 76 b 146 304 239 76 146 183 b 363 529 146 428 239 529 b 590 304 483 529 590 428 b 363 76 590 183 483 76 z "},"º":{"ha":731,"x_min":0,"x_max":0,"o":"m 365 -15 b 682 304 539 -15 682 133 b 365 621 682 478 539 621 b 49 304 192 621 49 478 b 365 -15 49 133 192 -15 z m 365 529 b 585 304 489 529 585 428 b 365 76 585 183 489 76 b 146 304 242 76 146 183 b 365 529 146 428 242 529 z "},"Δ":{"ha":1024,"x_min":0,"x_max":0,"o":"m 56 0 l 968 0 l 968 99 l 567 992 l 457 992 l 56 99 z m 164 97 l 513 869 l 860 97 z "},"Ω":{"ha":1117,"x_min":0,"x_max":0,"o":"m 42 0 l 461 0 l 461 106 b 175 499 294 158 175 314 b 558 900 175 717 329 900 b 942 499 788 900 942 717 b 657 106 942 314 824 158 l 657 0 l 1075 0 l 1075 97 l 853 97 b 1047 499 971 192 1047 336 b 558 1001 1047 771 843 1001 b 69 499 274 1001 69 771 b 264 97 69 336 146 192 l 42 97 z "},"μ":{"ha":724,"x_min":0,"x_max":0,"o":"m 533 611 l 533 286 b 333 82 533 151 457 82 b 176 263 232 82 176 142 l 176 611 l 83 611 l 83 -139 l 176 -139 l 176 26 b 333 -10 215 1 267 -10 b 533 74 417 -10 485 21 l 533 0 l 626 0 l 626 611 z "},"π":{"ha":847,"x_min":0,"x_max":0,"o":"m 799 704 l 49 704 l 49 611 l 121 611 l 125 0 l 222 0 l 218 611 l 628 611 l 632 0 l 729 0 l 725 611 l 799 611 z "},"⁄":{"ha":874,"x_min":0,"x_max":0,"o":"m 42 0 l 151 0 l 832 968 l 724 968 z "},"½":{"ha":1021,"x_min":0,"x_max":0,"o":"m 938 1042 l 840 1042 l 49 -68 l 147 -68 z m 272 992 l 129 992 l 129 929 l 197 918 l 197 499 l 272 499 z m 729 75 l 729 100 b 797 176 729 136 742 163 b 972 346 917 207 972 256 b 819 494 972 439 913 494 b 657 350 710 494 653 431 l 736 350 b 819 418 733 392 750 418 b 896 346 872 418 896 397 b 790 253 896 294 864 271 b 653 100 693 229 653 172 l 653 0 l 965 0 l 965 75 z "},"¼":{"ha":972,"x_min":0,"x_max":0,"o":"m 931 1042 l 833 1042 l 42 -68 l 140 -68 z m 246 992 l 103 992 l 103 929 l 171 918 l 171 499 l 246 499 z m 794 0 l 863 0 l 863 121 l 933 121 l 933 186 l 863 186 l 863 494 l 793 494 l 567 181 l 567 121 l 794 121 z m 653 186 l 794 386 l 794 186 z "},"¾":{"ha":972,"x_min":0,"x_max":0,"o":"m 931 1042 l 833 1042 l 42 -68 l 140 -68 z m 335 992 l 42 992 l 42 926 l 218 926 l 107 750 l 181 750 b 278 653 240 750 278 714 b 181 556 278 593 240 556 l 42 556 l 42 490 l 181 490 b 347 653 278 490 347 558 b 221 810 347 736 296 794 z m 781 0 l 849 0 l 849 121 l 919 121 l 919 186 l 849 186 l 849 494 l 779 494 l 553 181 l 553 121 l 781 121 z m 639 186 l 781 386 l 781 186 z "},"¹":{"ha":358,"x_min":0,"x_max":0,"o":"m 185 613 l 261 613 l 261 1111 l 83 1111 l 83 1042 l 185 1035 z "},"²":{"ha":438,"x_min":0,"x_max":0,"o":"m 56 611 l 379 611 l 379 676 l 131 676 l 131 690 b 382 971 131 810 382 801 b 221 1133 382 1081 308 1133 b 60 963 119 1133 53 1058 l 131 963 b 221 1067 128 1024 161 1067 b 311 971 282 1067 311 1028 b 56 690 311 861 56 869 z "},"³":{"ha":418,"x_min":0,"x_max":0,"o":"m 353 1111 l 56 1111 l 56 1046 l 238 1046 l 126 874 l 194 874 b 293 775 254 874 293 835 b 194 676 293 715 254 676 l 56 676 l 56 611 l 194 611 b 363 775 294 611 363 679 b 236 933 363 857 313 917 z "},"*":{"ha":475,"x_min":0,"x_max":0,"o":"m 300 846 l 433 910 l 401 969 l 272 907 l 272 1060 l 203 1060 l 203 907 l 74 969 l 42 910 l 175 846 l 82 729 l 135 689 l 238 818 l 340 689 l 393 729 z "},"\\":{"ha":833,"x_min":0,"x_max":0,"o":"m 653 -93 l 747 -93 l 375 1044 l 281 1044 z "},"·":{"ha":710,"x_min":0,"x_max":0,"o":"m 356 350 b 432 429 394 350 432 389 b 356 504 432 465 393 504 b 278 429 311 504 278 465 b 356 350 278 389 311 350 z "},"•":{"ha":833,"x_min":0,"x_max":0,"o":"m 418 263 b 588 435 506 263 588 344 b 418 603 588 521 506 603 b 247 435 319 603 247 521 b 418 263 247 344 319 263 z "},":":{"ha":299,"x_min":0,"x_max":0,"o":"m 153 461 b 229 539 194 461 229 496 b 153 615 229 581 194 615 b 75 539 110 615 75 581 b 153 461 75 496 110 461 z m 153 -7 b 229 71 194 -7 229 28 b 153 147 229 113 194 147 b 75 71 110 147 75 113 b 153 -7 75 28 110 -7 z "},",":{"ha":279,"x_min":0,"x_max":0,"o":"m 63 -108 l 107 -108 l 174 18 b 189 71 181 32 189 50 b 113 147 189 113 154 147 b 35 71 69 147 35 113 b 89 -3 35 36 57 7 z "},"…":{"ha":764,"x_min":0,"x_max":0,"o":"m 113 -7 b 189 71 154 -7 189 28 b 113 147 189 113 154 147 b 35 71 69 147 35 113 b 113 -7 35 28 69 -7 z m 390 -7 b 467 71 432 -7 467 28 b 390 147 467 113 432 147 b 313 71 347 147 313 113 b 390 -7 313 28 347 -7 z m 668 -7 b 744 71 710 -7 744 28 b 668 147 744 113 710 147 b 590 71 625 147 590 113 b 668 -7 590 28 625 -7 z "},"!":{"ha":293,"x_min":0,"x_max":0,"o":"m 101 253 l 194 253 l 194 992 l 101 992 z m 147 -8 b 224 69 189 -8 224 26 b 147 146 224 111 189 146 b 69 69 104 146 69 111 b 147 -8 69 26 104 -8 z "},"¡":{"ha":293,"x_min":0,"x_max":0,"o":"m 146 724 b 69 646 104 724 69 689 b 146 569 69 604 104 569 b 224 646 189 569 224 604 b 146 724 224 689 189 724 z m 192 463 l 99 463 l 99 -276 l 192 -276 z "},"#":{"ha":740,"x_min":0,"x_max":0,"o":"m 697 521 l 699 611 l 589 611 l 676 847 l 582 847 l 496 613 l 371 613 l 457 847 l 363 847 l 276 613 l 88 614 l 88 524 l 243 522 l 181 354 l 42 354 l 42 264 l 147 264 l 57 18 l 151 18 l 242 263 l 367 263 l 276 18 l 371 18 l 461 263 l 651 261 l 653 351 l 494 353 l 557 521 z m 400 353 l 275 353 l 338 522 l 463 522 z "},".":{"ha":279,"x_min":0,"x_max":0,"o":"m 113 -7 b 189 71 154 -7 189 28 b 113 147 189 113 154 147 b 35 71 69 147 35 113 b 113 -7 35 28 69 -7 z "},"?":{"ha":763,"x_min":0,"x_max":0,"o":"m 186 756 b 361 901 196 842 257 901 b 539 747 467 901 539 838 b 433 606 539 704 517 633 b 281 253 261 549 281 436 l 382 253 b 456 508 382 422 375 481 b 644 747 582 551 644 632 b 361 1003 644 888 554 1003 b 81 756 193 1003 86 899 z m 328 -8 b 404 69 369 -8 404 26 b 328 146 404 111 369 146 b 250 69 285 146 250 111 b 328 -8 250 26 285 -8 z "},"¿":{"ha":699,"x_min":0,"x_max":0,"o":"m 371 722 b 294 644 329 722 294 688 b 371 568 294 603 329 568 b 449 644 414 568 449 603 b 371 722 449 688 414 722 z m 513 -42 b 338 -187 503 -128 442 -187 b 160 -33 232 -187 160 -124 b 265 108 160 10 182 81 b 418 461 438 165 418 278 l 317 461 b 243 206 317 292 324 233 b 54 -33 117 163 54 82 b 338 -289 54 -174 144 -289 b 618 -42 506 -289 613 -185 z "},"\"":{"ha":833,"x_min":0,"x_max":0,"o":"m 339 1054 b 278 994 304 1054 278 1028 l 279 983 l 276 983 l 306 801 l 365 801 l 392 967 b 399 994 396 975 399 985 b 339 1054 399 1028 371 1054 z m 594 994 b 535 1054 594 1028 567 1054 b 474 994 500 1054 474 1028 l 475 983 l 472 983 l 501 801 l 561 801 l 588 967 b 594 994 592 975 594 985 z "},"'":{"ha":274,"x_min":0,"x_max":0,"o":"m 199 992 b 139 1051 199 1025 171 1051 b 78 992 104 1051 78 1025 l 79 981 l 76 981 l 106 799 l 165 799 l 192 964 b 199 992 196 972 199 982 z "},";":{"ha":293,"x_min":0,"x_max":0,"o":"m 150 465 b 226 543 192 465 226 500 b 150 619 226 585 192 619 b 72 543 107 619 72 585 b 150 465 72 500 107 465 z m 92 -108 l 136 -108 l 203 18 b 218 71 210 32 218 50 b 142 147 218 113 183 147 b 64 71 99 147 64 113 b 118 -3 64 36 86 7 z "},"/":{"ha":590,"x_min":0,"x_max":0,"o":"m 176 -93 l 549 1044 l 454 1044 l 82 -93 z "},"_":{"ha":833,"x_min":0,"x_max":0,"o":"m 83 -193 l 83 -278 l 761 -278 l 761 -193 z "},"{":{"ha":381,"x_min":0,"x_max":0,"o":"m 229 831 b 339 1049 231 1003 264 1036 l 339 1118 b 138 814 174 1118 139 1038 b 42 515 135 643 149 535 l 42 411 b 138 113 149 392 135 283 b 339 -192 139 -111 174 -192 l 339 -122 b 229 96 264 -110 231 -76 b 150 464 228 274 217 397 b 229 831 217 529 228 653 z "},"}":{"ha":381,"x_min":0,"x_max":0,"o":"m 243 814 b 42 1118 242 1038 207 1118 l 42 1049 b 151 831 117 1036 150 1003 b 231 463 153 653 164 529 b 151 96 164 397 153 274 b 42 -122 150 -76 117 -110 l 42 -192 b 243 113 207 -192 242 -111 b 339 411 246 283 232 392 l 339 515 b 243 814 232 535 246 643 z "},"[":{"ha":833,"x_min":0,"x_max":0,"o":"m 728 1015 l 728 1104 l 450 1104 l 450 -139 l 728 -139 l 728 -50 l 543 -50 l 543 1015 z "},"]":{"ha":417,"x_min":0,"x_max":0,"o":"m 69 1104 l 69 1015 l 254 1015 l 254 -50 l 69 -50 l 69 -139 l 347 -139 l 347 1104 z "},"(":{"ha":544,"x_min":0,"x_max":0,"o":"m 453 -137 b 164 439 276 -1 164 208 b 453 1014 164 669 276 879 l 335 1014 b 46 439 158 879 46 669 b 335 -137 46 208 158 -1 z "},")":{"ha":494,"x_min":0,"x_max":0,"o":"m 160 -137 b 449 439 336 -1 449 208 b 160 1014 449 669 336 879 l 42 1014 b 331 439 218 879 331 669 b 42 -137 331 208 218 -1 z "},"—":{"ha":1472,"x_min":0,"x_max":0,"o":"m 42 429 l 42 336 l 1431 336 l 1431 429 z "},"–":{"ha":778,"x_min":0,"x_max":0,"o":"m 42 429 l 42 336 l 736 336 l 736 429 z "},"-":{"ha":713,"x_min":0,"x_max":0,"o":"m 90 443 l 90 350 l 622 350 l 622 443 z "},"­":{"ha":833,"x_min":0,"x_max":0,"o":"m 90 443 l 90 350 l 622 350 l 622 443 z "},"«":{"ha":629,"x_min":0,"x_max":0,"o":"m 371 546 l 267 546 l 83 314 l 267 82 l 371 82 l 188 314 z m 574 546 l 469 546 l 286 314 l 469 82 l 574 82 l 390 314 z "},"»":{"ha":574,"x_min":0,"x_max":0,"o":"m 104 546 l 0 546 l 183 314 l 0 82 l 104 82 l 288 314 z m 307 546 l 203 546 l 386 314 l 203 82 l 307 82 l 490 314 z "},"‹":{"ha":454,"x_min":0,"x_max":0,"o":"m 371 546 l 267 546 l 83 314 l 267 82 l 371 82 l 188 314 z "},"›":{"ha":454,"x_min":0,"x_max":0,"o":"m 188 546 l 83 546 l 267 314 l 83 82 l 188 82 l 371 314 z "},"„":{"ha":549,"x_min":0,"x_max":0,"o":"m 119 -108 l 164 -108 l 231 18 b 246 71 238 32 246 50 b 169 147 246 113 211 147 b 92 71 126 147 92 113 b 146 -3 92 36 114 7 z m 333 -108 l 378 -108 l 444 18 b 460 71 451 32 460 50 b 383 147 460 113 425 147 b 306 71 340 147 306 113 b 360 -3 306 36 328 7 z "},"“":{"ha":535,"x_min":0,"x_max":0,"o":"m 201 992 l 157 992 l 90 865 b 75 813 83 851 75 833 b 151 736 75 771 110 736 b 229 813 194 736 229 771 b 175 886 229 847 207 876 z m 415 992 l 371 992 l 304 865 b 289 813 297 851 289 833 b 365 736 289 771 324 736 b 443 813 408 736 443 771 b 389 886 443 847 421 876 z "},"”":{"ha":535,"x_min":0,"x_max":0,"o":"m 119 743 l 164 743 l 231 869 b 246 922 238 883 246 901 b 169 999 246 964 211 999 b 92 922 126 999 92 964 b 146 849 92 888 114 858 z m 333 743 l 378 743 l 444 869 b 460 922 451 883 460 901 b 383 999 460 964 425 999 b 306 922 340 999 306 964 b 360 849 306 888 328 858 z "},"‘":{"ha":278,"x_min":0,"x_max":0,"o":"m 172 992 l 128 992 l 61 865 b 46 813 54 851 46 833 b 122 736 46 771 81 736 b 200 813 165 736 200 771 b 146 886 200 847 178 876 z "},"’":{"ha":278,"x_min":0,"x_max":0,"o":"m 63 743 l 107 743 l 174 869 b 189 922 181 883 189 901 b 113 999 189 964 154 999 b 35 922 69 999 35 964 b 89 849 35 888 57 858 z "},"‚":{"ha":278,"x_min":0,"x_max":0,"o":"m 63 -108 l 107 -108 l 174 18 b 189 71 181 32 189 50 b 113 147 189 113 154 147 b 35 71 69 147 35 113 b 89 -3 35 36 57 7 z "}," ":{"ha":417,"x_min":0,"x_max":0,"o":""},"¢":{"ha":685,"x_min":0,"x_max":0,"o":"m 558 390 b 386 272 524 326 461 279 l 385 722 b 558 607 461 717 524 671 l 663 607 b 385 815 621 722 513 807 l 385 992 l 314 992 l 314 811 b 49 499 164 786 49 654 b 315 183 49 344 165 208 l 315 1 l 386 1 l 386 179 b 664 390 514 188 624 272 z m 146 499 b 314 718 146 604 217 694 l 315 276 b 146 499 217 301 146 394 z "},"¤":{"ha":703,"x_min":0,"x_max":0,"o":"m 668 511 b 606 700 668 582 644 647 l 683 778 l 650 810 l 617 843 l 539 765 b 351 828 486 804 421 828 b 164 767 282 828 217 804 l 86 844 l 53 810 l 19 776 l 97 699 b 35 511 58 646 35 581 b 97 324 35 442 58 376 l 19 246 l 53 213 l 86 181 l 163 257 b 351 192 215 217 281 192 b 540 256 422 192 488 217 l 617 179 l 650 213 l 683 247 l 606 325 b 668 511 644 378 668 443 z m 351 283 b 132 511 228 283 132 390 b 351 736 132 635 228 736 b 571 511 475 736 571 635 b 351 283 571 390 475 283 z "},"$":{"ha":738,"x_min":0,"x_max":0,"o":"m 686 275 b 399 568 686 438 565 511 l 399 901 b 526 789 458 889 508 844 l 638 789 b 399 1006 617 906 521 992 l 399 1083 l 326 1083 l 326 1006 b 79 742 176 989 79 881 b 326 478 79 603 165 532 l 326 92 b 150 253 238 106 167 168 l 44 253 b 326 -11 63 111 179 4 l 326 -89 l 399 -89 l 399 -11 b 686 275 561 3 686 113 z m 185 742 b 326 903 185 818 239 886 l 326 592 b 185 742 232 626 185 665 z m 399 454 b 581 275 529 408 581 360 b 399 90 581 171 503 103 z "},"€":{"ha":758,"x_min":0,"x_max":0,"o":"m 550 369 l 581 458 l 213 458 l 211 492 b 213 535 211 506 211 521 l 600 535 l 629 624 l 225 624 b 628 890 267 814 403 950 l 628 992 b 117 624 335 1054 161 875 l -36 624 l -36 535 l 107 535 b 106 492 106 521 106 506 l 106 458 l -36 458 l -36 369 l 115 369 b 628 0 157 114 332 -64 l 628 101 b 224 369 399 40 263 176 z "},"ƒ":{"ha":482,"x_min":0,"x_max":0,"o":"m 56 -139 l 153 -139 l 247 526 l 371 526 l 382 611 l 258 611 l 271 697 b 422 906 288 817 301 922 l 440 992 b 172 692 225 1022 193 842 l 161 611 l 79 611 l 68 526 l 150 526 z "},"£":{"ha":640,"x_min":0,"x_max":0,"o":"m 599 97 l 221 97 b 278 379 264 165 278 268 l 278 450 l 426 450 l 426 547 l 278 547 l 278 640 b 513 871 278 813 275 990 l 513 971 b 176 640 204 1097 176 886 l 176 547 l 56 547 l 56 450 l 176 450 l 176 379 b 42 97 176 244 157 103 l 42 0 l 599 0 z "},"¥":{"ha":833,"x_min":0,"x_max":0,"o":"m 783 992 l 676 992 l 396 540 l 115 992 l 8 992 l 344 451 l 171 451 l 171 354 l 344 354 l 344 285 l 171 285 l 171 188 l 344 188 l 344 0 l 446 0 l 446 188 l 622 188 l 622 285 l 446 285 l 446 354 l 622 354 l 622 451 l 446 451 z "},"≈":{"ha":833,"x_min":0,"x_max":0,"o":"m 428 632 b 135 499 214 715 149 651 l 225 499 b 410 526 232 597 303 572 b 703 660 624 443 689 507 l 613 660 b 428 632 606 561 535 586 z m 428 396 b 135 263 214 479 149 415 l 225 263 b 410 290 232 361 303 336 b 703 424 624 207 689 271 l 613 424 b 428 396 606 325 535 350 z "},"~":{"ha":651,"x_min":0,"x_max":0,"o":"m 335 499 b 42 365 121 582 56 518 l 132 365 b 317 393 139 464 210 439 b 610 526 531 310 596 374 l 519 526 b 335 499 513 428 442 453 z "},"÷":{"ha":833,"x_min":0,"x_max":0,"o":"m 421 613 b 497 690 463 613 497 647 b 421 767 497 732 463 767 b 343 690 378 767 343 732 b 421 613 343 647 378 613 z m 67 336 l 761 336 l 761 429 l 67 429 z m 421 -10 b 497 68 463 -10 497 25 b 421 144 497 110 463 144 b 343 68 378 144 343 110 b 421 -10 343 25 378 -10 z "},"∅":{"ha":1003,"x_min":0,"x_max":0,"o":"m 979 851 l 847 851 l 754 742 b 526 813 686 786 608 813 b 103 401 303 813 103 613 b 221 117 103 294 149 193 l 74 -57 l 206 -57 l 299 51 b 526 -21 365 6 444 -21 b 950 401 750 -21 950 179 b 831 678 950 503 904 601 z m 199 401 b 526 714 199 572 342 714 b 693 671 588 714 644 699 l 281 185 b 199 401 229 242 199 318 z m 854 401 b 526 78 854 219 711 78 b 358 122 465 78 407 94 l 772 608 b 854 401 824 553 854 481 z "},"=":{"ha":778,"x_min":0,"x_max":0,"o":"m 42 475 l 736 475 l 736 568 l 42 568 z m 42 253 l 736 253 l 736 346 l 42 346 z "},">":{"ha":815,"x_min":0,"x_max":0,"o":"m 49 717 l 49 610 l 517 410 l 49 210 l 49 103 l 767 410 z "},"≥":{"ha":815,"x_min":0,"x_max":0,"o":"m 49 772 l 49 665 l 517 465 l 49 265 l 49 158 l 767 465 z m 49 1 l 743 1 l 743 94 l 49 94 z "},"∞":{"ha":1032,"x_min":0,"x_max":0,"o":"m 757 736 b 529 617 658 738 575 688 b 306 736 486 688 407 738 b 42 496 156 738 42 622 b 306 253 42 369 156 254 b 529 375 407 254 486 304 b 757 253 575 304 658 254 b 1015 496 910 254 1015 369 b 757 736 1015 622 910 738 z m 757 336 b 564 496 660 336 589 418 b 757 665 575 574 660 667 b 935 496 867 667 935 586 b 757 336 935 404 867 336 z m 306 324 b 124 496 199 324 124 404 b 306 653 124 586 199 654 b 493 496 404 654 469 574 b 306 324 483 418 406 324 z "},"∫":{"ha":765,"x_min":0,"x_max":0,"o":"m 332 231 b 97 0 332 58 335 -119 l 97 -100 b 433 231 406 -226 433 -15 l 433 661 b 668 892 433 833 431 1011 l 668 992 b 332 661 360 1118 332 907 z "},"<":{"ha":815,"x_min":0,"x_max":0,"o":"m 767 717 l 49 410 l 767 103 l 767 210 l 299 410 l 767 610 z "},"≤":{"ha":815,"x_min":0,"x_max":0,"o":"m 767 772 l 49 465 l 767 158 l 767 265 l 299 465 l 767 665 z m 72 1 l 767 1 l 767 94 l 72 94 z "},"¬":{"ha":838,"x_min":0,"x_max":0,"o":"m 56 611 l 56 518 l 658 518 l 658 225 l 754 225 l 754 611 z "},"−":{"ha":778,"x_min":0,"x_max":0,"o":"m 42 336 l 736 336 l 736 429 l 42 429 z "},"×":{"ha":642,"x_min":0,"x_max":0,"o":"m 600 610 l 535 676 l 322 464 l 108 676 l 42 611 l 256 397 l 43 185 l 110 119 l 322 332 l 533 119 l 599 186 l 388 397 z "},"≠":{"ha":833,"x_min":0,"x_max":0,"o":"m 736 475 l 736 568 l 508 568 l 642 875 l 547 875 l 414 568 l 42 568 l 42 475 l 372 475 l 317 346 l 42 346 l 42 253 l 275 253 l 175 22 l 269 22 l 369 253 l 736 253 l 736 346 l 411 346 l 467 475 z "},"∂":{"ha":833,"x_min":0,"x_max":0,"o":"m 639 896 b 172 933 539 1015 335 1061 b 574 825 389 1022 519 901 b 638 436 646 722 675 590 b 406 639 624 550 508 631 b 85 343 243 654 100 521 b 350 -4 69 165 188 10 b 681 265 510 -18 617 97 b 639 896 778 519 760 751 z m 358 90 b 172 335 243 100 161 211 b 397 546 183 461 283 556 b 582 299 511 536 592 425 b 358 90 571 175 471 81 z "},"%":{"ha":1096,"x_min":0,"x_max":0,"o":"m 279 554 b 83 781 149 554 83 639 b 279 1001 83 919 149 1001 b 475 781 410 1001 475 919 b 279 554 475 639 410 554 z m 139 0 l 249 0 l 929 968 l 821 968 z m 279 919 b 167 781 203 919 167 867 b 279 636 167 692 203 636 b 393 781 357 636 393 692 b 279 919 393 867 357 919 z m 817 -7 b 621 219 686 -7 621 78 b 817 440 621 358 686 440 b 1013 219 947 440 1013 358 b 817 -7 1013 78 947 -7 z m 817 358 b 704 219 740 358 704 306 b 817 75 704 131 740 75 b 931 219 894 75 931 131 b 817 358 931 306 894 358 z "},"‰":{"ha":1467,"x_min":0,"x_max":0,"o":"m 238 554 b 42 781 107 554 42 639 b 238 1001 42 919 107 1001 b 433 781 368 1001 433 919 b 238 554 433 639 368 554 z m 97 0 l 207 0 l 888 968 l 779 968 z m 238 919 b 125 781 161 919 125 867 b 238 636 125 692 161 636 b 351 781 315 636 351 692 b 238 919 351 867 315 919 z m 775 -7 b 579 219 644 -7 579 78 b 775 440 579 358 644 440 b 971 219 906 440 971 358 b 775 -7 971 78 906 -7 z m 1250 -7 b 1054 219 1119 -7 1054 78 b 1250 440 1054 358 1119 440 b 1446 219 1381 440 1446 358 b 1250 -7 1446 78 1381 -7 z m 775 358 b 663 219 699 358 663 306 b 775 75 663 131 699 75 b 889 219 853 75 889 131 b 775 358 889 306 853 358 z m 1250 358 b 1138 219 1174 358 1138 306 b 1250 75 1138 131 1174 75 b 1364 219 1328 75 1364 131 b 1250 358 1364 306 1328 358 z "},"+":{"ha":833,"x_min":0,"x_max":0,"o":"m 764 429 l 464 429 l 464 731 l 371 731 l 371 429 l 69 429 l 69 336 l 371 336 l 371 36 l 464 36 l 464 336 l 764 336 z "},"±":{"ha":833,"x_min":0,"x_max":0,"o":"m 464 442 l 464 663 l 371 663 l 371 442 l 69 442 l 69 349 l 371 349 l 371 142 l 464 142 l 464 349 l 764 349 l 764 442 z m 69 0 l 764 0 l 764 93 l 69 93 z "},"∏":{"ha":833,"x_min":0,"x_max":0,"o":"m 832 992 l -1 992 l -1 899 l 71 899 l 75 -190 l 172 -190 l 167 899 l 661 899 l 665 -190 l 763 -190 l 757 899 l 832 899 z "},"√":{"ha":833,"x_min":0,"x_max":0,"o":"m 825 1157 l 364 4 l 193 446 l 76 446 l 294 -115 l 411 -115 l 919 1157 z "},"∑":{"ha":833,"x_min":0,"x_max":0,"o":"m 739 838 l 50 838 l 50 728 l 501 349 l 50 -31 l 50 -140 l 739 -140 l 739 -39 l 201 -39 l 607 294 l 607 404 l 201 736 l 739 736 z "},"↑":{"ha":500,"x_min":0,"x_max":0,"o":"m 250 986 l 42 735 l 204 735 l 204 0 l 297 0 l 297 735 l 458 735 z "},"↗":{"ha":1075,"x_min":0,"x_max":0,"o":"m 1033 1004 l 678 1004 l 822 860 l 42 79 l 108 13 l 889 793 l 1033 649 z "},"→":{"ha":1069,"x_min":0,"x_max":0,"o":"m 1014 418 l 763 626 l 763 465 l 28 465 l 28 372 l 763 372 l 763 210 z "},"↘":{"ha":1075,"x_min":0,"x_max":0,"o":"m 889 211 l 108 992 l 42 925 l 822 144 l 678 0 l 1033 0 l 1033 356 z "},"↓":{"ha":500,"x_min":0,"x_max":0,"o":"m 297 251 l 297 986 l 204 986 l 204 251 l 42 251 l 250 0 l 458 251 z "},"↙":{"ha":1075,"x_min":0,"x_max":0,"o":"m 1033 914 l 967 981 l 186 200 l 42 344 l 42 -11 l 397 -11 l 253 133 z "},"←":{"ha":1069,"x_min":0,"x_max":0,"o":"m 293 465 l 293 626 l 42 418 l 293 210 l 293 372 l 1028 372 l 1028 465 z "},"↖":{"ha":1075,"x_min":0,"x_max":0,"o":"m 239 846 l 383 990 l 28 990 l 28 635 l 172 779 l 953 -1 l 1019 65 z "},"↔":{"ha":1125,"x_min":0,"x_max":0,"o":"m 1083 418 l 832 626 l 832 463 l 293 463 l 293 626 l 42 418 l 293 210 l 293 372 l 832 372 l 832 210 z "},"↕":{"ha":500,"x_min":0,"x_max":0,"o":"m 297 686 l 458 686 l 250 938 l 42 686 l 204 686 l 204 147 l 42 147 l 250 -104 l 458 147 l 297 147 z "},"◊":{"ha":833,"x_min":0,"x_max":0,"o":"m 414 842 l -6 424 l 414 4 l 832 422 z m 414 714 l 704 424 l 414 132 l 122 424 z "},"|":{"ha":272,"x_min":0,"x_max":0,"o":"m 179 -181 l 182 1043 l 93 1042 l 90 -181 z "},"¦":{"ha":274,"x_min":0,"x_max":0,"o":"m 90 532 l 183 532 l 183 1042 l 90 1042 z m 90 -181 l 183 -181 l 183 329 l 90 329 z "},"@":{"ha":1226,"x_min":0,"x_max":0,"o":"m 608 911 b 42 329 301 911 42 644 b 608 -264 42 7 301 -264 b 1044 -64 813 -264 924 -207 l 917 -64 b 608 -171 818 -140 743 -171 b 139 329 354 -171 139 58 b 608 818 139 594 354 818 b 1088 329 879 818 1088 594 b 1079 238 1088 297 1085 267 b 967 104 1064 128 1017 94 b 899 267 914 113 899 156 l 899 611 l 806 611 l 806 540 b 603 635 758 599 689 635 b 297 318 429 635 297 492 b 603 -1 297 147 429 -1 b 833 136 707 -1 788 54 b 953 22 853 64 892 32 b 1176 224 1047 7 1154 74 b 1185 329 1182 257 1185 293 b 608 911 1185 644 932 911 z m 600 90 b 394 318 476 90 394 197 b 600 543 394 442 476 543 b 800 318 721 543 800 442 b 600 90 800 197 721 90 z "},"&":{"ha":743,"x_min":0,"x_max":0,"o":"m 368 403 b 192 778 232 585 178 681 b 304 906 201 850 246 896 b 463 824 349 913 432 904 b 472 724 468 807 478 763 l 578 724 b 561 865 585 778 574 835 b 263 994 515 982 390 1021 b 89 779 175 976 104 900 b 154 526 81 710 97 619 b 32 167 25 425 -7 272 b 510 58 92 3 300 -85 l 558 0 l 686 0 l 586 128 b 701 340 625 172 671 250 l 596 340 b 526 203 576 286 550 235 b 368 403 471 275 413 344 z m 449 133 b 122 201 297 32 161 92 b 207 449 94 274 118 374 b 286 339 231 414 257 378 b 449 133 333 276 390 206 z "},"¶":{"ha":833,"x_min":0,"x_max":0,"o":"m 633 993 l 435 993 b 185 743 297 993 185 881 b 433 492 185 604 297 492 l 432 -181 l 522 -181 l 525 918 l 633 917 l 631 -181 l 721 -181 l 724 992 z "},"©":{"ha":1117,"x_min":0,"x_max":0,"o":"m 558 1001 b 42 499 274 1001 42 771 b 558 -15 42 215 274 -15 b 1075 499 843 -15 1075 215 b 558 1001 1075 771 843 1001 z m 558 69 b 119 499 314 69 119 265 b 558 917 119 721 314 917 b 997 499 803 917 997 721 b 558 69 997 265 803 69 z m 803 589 b 557 763 765 690 669 763 b 292 499 411 763 292 643 b 557 232 292 356 411 232 b 804 408 671 232 768 306 l 717 408 b 557 308 685 351 626 308 b 372 499 454 308 372 399 b 557 686 372 601 454 686 b 717 589 626 686 685 646 z "},"®":{"ha":1117,"x_min":0,"x_max":0,"o":"m 558 1001 b 42 499 274 1001 42 771 b 558 -15 42 215 274 -15 b 1075 499 843 -15 1075 215 b 558 1001 1075 771 843 1001 z m 558 69 b 119 499 314 69 119 265 b 558 917 119 721 314 917 b 997 499 803 917 997 721 b 558 69 997 265 803 69 z m 697 247 l 792 247 l 638 446 b 743 600 701 468 743 526 b 574 764 743 696 675 764 l 400 764 l 400 247 l 474 247 l 474 436 l 550 436 z m 474 503 l 474 694 l 574 694 b 668 600 632 694 668 658 b 574 503 668 539 632 503 z "},"§":{"ha":842,"x_min":0,"x_max":0,"o":"m 650 346 b 410 671 740 526 606 633 b 188 768 264 699 188 700 b 390 901 188 846 271 901 b 593 772 510 901 593 849 l 697 772 b 390 999 696 901 571 999 b 83 768 190 999 83 894 b 132 653 83 714 100 679 b 371 328 42 472 175 365 b 593 231 517 300 593 299 b 390 97 593 153 510 97 b 188 226 271 97 188 150 l 83 226 b 390 0 85 97 210 0 b 697 231 590 0 697 104 b 650 346 697 285 682 319 z m 201 617 b 389 575 249 601 311 589 b 581 382 503 556 617 507 b 392 424 533 397 469 410 b 201 617 279 443 165 492 z "},"™":{"ha":1090,"x_min":0,"x_max":0,"o":"m 224 486 l 289 486 l 289 933 l 472 933 l 472 996 l 56 996 l 56 933 l 224 933 z m 1036 996 l 968 996 l 782 567 l 597 996 l 528 996 l 528 486 l 593 486 l 593 840 l 749 486 l 817 486 l 972 839 l 972 486 l 1036 486 z "},"°":{"ha":374,"x_min":0,"x_max":0,"o":"m 188 718 b 338 869 272 718 338 783 b 188 1019 338 954 272 1019 b 36 869 101 1019 36 954 b 188 718 36 783 101 718 z m 188 789 b 107 869 143 789 107 825 b 188 949 107 913 143 949 b 267 869 231 949 267 913 b 188 789 267 825 231 789 z "},"^":{"ha":614,"x_min":0,"x_max":0,"o":"m 307 992 l 0 274 l 107 274 l 307 742 l 507 274 l 614 274 z "},"†":{"ha":833,"x_min":0,"x_max":0,"o":"m 697 650 l 461 650 l 460 992 l 364 992 l 365 650 l 131 650 l 131 557 l 365 557 l 368 -181 l 465 -181 l 461 557 l 697 557 z "},"‡":{"ha":833,"x_min":0,"x_max":0,"o":"m 697 557 l 697 650 l 461 650 l 460 992 l 364 992 l 365 650 l 131 650 l 131 557 l 365 557 l 367 251 l 131 251 l 131 158 l 367 158 l 368 -181 l 465 -181 l 464 158 l 697 158 l 697 251 l 464 251 l 461 557 z "},"´":{"ha":833,"x_min":0,"x_max":0,"o":"m 381 736 l 542 938 l 421 938 l 276 736 z "},"˘":{"ha":833,"x_min":0,"x_max":0,"o":"m 529 900 b 422 814 524 846 485 814 b 311 900 357 814 317 846 l 225 900 b 422 732 215 801 296 732 b 618 900 547 732 628 801 z "},"ˇ":{"ha":833,"x_min":0,"x_max":0,"o":"m 533 985 l 425 863 l 315 985 l 260 946 l 404 760 l 444 760 l 589 946 z "},"¸":{"ha":833,"x_min":0,"x_max":0,"o":"m 297 -133 b 447 -250 297 -200 363 -250 b 596 -133 531 -250 596 -200 b 479 -21 596 -76 547 -32 l 489 0 l 422 0 l 389 -72 l 447 -72 b 525 -133 490 -72 525 -100 b 447 -196 525 -168 490 -196 b 367 -133 403 -196 367 -168 z "},"ˆ":{"ha":833,"x_min":0,"x_max":0,"o":"m 533 725 l 589 764 l 444 950 l 404 950 l 260 764 l 315 725 l 425 847 z "},"¨":{"ha":672,"x_min":0,"x_max":0,"o":"m 203 736 b 265 801 236 736 265 765 b 203 863 265 833 236 863 b 139 801 167 863 139 833 b 203 736 139 765 167 736 z m 471 736 b 533 801 504 736 533 765 b 471 863 533 833 504 863 b 407 801 435 863 407 833 b 471 736 407 765 435 736 z "},"˙":{"ha":833,"x_min":0,"x_max":0,"o":"m 419 735 b 485 803 454 735 485 765 b 419 867 485 836 454 867 b 353 803 382 867 353 836 b 419 735 353 765 382 735 z "},"`":{"ha":833,"x_min":0,"x_max":0,"o":"m 485 736 l 589 736 l 444 938 l 324 938 z "},"˝":{"ha":833,"x_min":0,"x_max":0,"o":"m 185 910 l 289 910 l 450 1111 l 329 1111 z m 411 910 l 515 910 l 676 1111 l 556 1111 z "},"¯":{"ha":833,"x_min":0,"x_max":0,"o":"m 144 1193 l 144 1111 l 692 1111 l 692 1193 z "},"˛":{"ha":833,"x_min":0,"x_max":0,"o":"m 546 -104 b 438 0 467 -144 339 -144 l 374 0 b 546 -189 240 -211 453 -237 z "},"˚":{"ha":833,"x_min":0,"x_max":0,"o":"m 406 733 b 525 856 468 733 525 790 b 406 974 525 917 468 974 b 285 856 339 974 285 917 b 406 733 285 790 339 733 z m 406 793 b 344 856 371 793 344 821 b 406 914 344 886 371 914 b 465 856 438 914 465 886 b 406 793 465 821 438 793 z "},"˜":{"ha":833,"x_min":0,"x_max":0,"o":"m 464 722 b 600 851 578 722 600 822 l 514 851 b 464 801 514 851 513 801 b 339 860 425 801 417 860 b 203 731 225 860 203 760 l 289 731 b 339 781 289 731 290 781 b 464 722 381 781 394 722 z "},"̦":{"ha":0,"x_min":0,"x_max":0,"o":"m 64 -353 l 108 -353 l 175 -226 b 190 -174 182 -212 190 -194 b 114 -97 190 -132 156 -97 b 36 -174 71 -97 36 -132 b 90 -247 36 -208 58 -237 z "}}}
